<?xml version="1.0" standalone="no"?>
 <!DOCTYPE svg PUBLIC "-//W3C//DTD SVG 1.1//EN" 
 "http://www.w3.org/Graphics/SVG/1.1/DTD/svg11.dtd"> 
<svg
  xmlns:svg="http://www.w3.org/2000/svg"
  xmlns="http://www.w3.org/2000/svg"
  xmlns:xlink="http://www.w3.org/1999/xlink"
  version="1.1"
  width="60.0456mm" height="40.0304mm" viewBox="0.0000 0.0000 60.0456 40.0304">
<title>SVG Image created as drivedot-board.svg date 2026/10/02 19:53:35 </title>
  <desc>Image generated by PCBNEW </desc>
<g style="fill:#000000; fill-opacity:1.0000;stroke:#000000; stroke-opacity:1.0000;
stroke-linecap:round; stroke-linejoin:round;"
 transform="translate(0 0) scale(1 1)">
<path style="fill:#C83434; fill-opacity:1.0000; stroke:none;fill-rule:evenodd;"
d="M 42.1250,20.9250
42.1250,19.1250
43.9250,19.1250
43.9250,20.9250
Z" /> 
</g>
<g style="fill:#C83434; fill-opacity:1.0000; stroke:none;">
<circle cx="45.5650" cy="20.0250" r="0.9000" /> 
</g>
<g style="fill:#C83434; fill-opacity:1.0000; stroke:none;">
<circle cx="48.1050" cy="20.0250" r="0.9000" /> 
</g>
<g style="fill:#C83434; fill-opacity:1.0000; stroke:none;">
<circle cx="50.6450" cy="20.0250" r="0.9000" /> 
</g>
<g style="fill:#C83434; fill-opacity:1.0000; stroke:none;">
<circle cx="13.7750" cy="27.7750" r="1.0000" /> 
</g>
<g style="fill:#C83434; fill-opacity:1.0000; stroke:none;">
<circle cx="20.2750" cy="27.7750" r="1.0000" /> 
</g>
<g style="fill:#C83434; fill-opacity:1.0000; stroke:none;">
<circle cx="13.7750" cy="32.2750" r="1.0000" /> 
</g>
<g style="fill:#C83434; fill-opacity:1.0000; stroke:none;">
<circle cx="20.2750" cy="32.2750" r="1.0000" /> 
<path style="fill:#C83434; fill-opacity:1.0000; stroke:none;fill-rule:evenodd;"
d="M 42.1250,7.9250
42.1250,6.1250
43.9250,6.1250
43.9250,7.9250
Z" /> 
</g>
<g style="fill:#C83434; fill-opacity:1.0000; stroke:none;">
<circle cx="45.5650" cy="7.0250" r="0.9000" /> 
</g>
<g style="fill:#C83434; fill-opacity:1.0000; stroke:none;">
<circle cx="48.1050" cy="7.0250" r="0.9000" /> 
</g>
<g style="fill:#C83434; fill-opacity:1.0000; stroke:none;">
<circle cx="50.6450" cy="7.0250" r="0.9000" /> 
</g>
<g style="fill:#C83434; fill-opacity:1.0000; stroke:none;">
<circle cx="9.4050" cy="3.4050" r="0.9000" /> 
</g>
<g style="fill:#C83434; fill-opacity:1.0000; stroke:none;">
<circle cx="9.4050" cy="5.9450" r="0.9000" /> 
</g>
<g style="fill:#C83434; fill-opacity:1.0000; stroke:none;">
<circle cx="9.4050" cy="8.4850" r="0.9000" /> 
</g>
<g style="fill:#C83434; fill-opacity:1.0000; stroke:none;">
<circle cx="9.4050" cy="11.0250" r="0.9000" /> 
</g>
<g style="fill:#C83434; fill-opacity:1.0000; stroke:none;">
<circle cx="9.4050" cy="13.5650" r="0.9000" /> 
</g>
<g style="fill:#C83434; fill-opacity:1.0000; stroke:none;">
<circle cx="9.4050" cy="16.1050" r="0.9000" /> 
</g>
<g style="fill:#C83434; fill-opacity:1.0000; stroke:none;">
<circle cx="9.4050" cy="18.6450" r="0.9000" /> 
</g>
<g style="fill:#C83434; fill-opacity:1.0000; stroke:none;">
<circle cx="24.6450" cy="18.6450" r="0.9000" /> 
</g>
<g style="fill:#C83434; fill-opacity:1.0000; stroke:none;">
<circle cx="24.6450" cy="16.1050" r="0.9000" /> 
</g>
<g style="fill:#C83434; fill-opacity:1.0000; stroke:none;">
<circle cx="24.6450" cy="13.5650" r="0.9000" /> 
</g>
<g style="fill:#C83434; fill-opacity:1.0000; stroke:none;">
<circle cx="24.6450" cy="11.0250" r="0.9000" /> 
</g>
<g style="fill:#C83434; fill-opacity:1.0000; stroke:none;">
<circle cx="24.6450" cy="8.4850" r="0.9000" /> 
</g>
<g style="fill:#C83434; fill-opacity:1.0000; stroke:none;">
<circle cx="24.6450" cy="5.9450" r="0.9000" /> 
</g>
<g style="fill:#C83434; fill-opacity:1.0000; stroke:none;">
<circle cx="24.6450" cy="3.4050" r="0.9000" /> 
</g>
<g style="fill:#C83434; fill-opacity:1.0000; stroke:none;">
<circle cx="30.0250" cy="27.0250" r="0.9000" /> 
</g>
<g style="fill:#C83434; fill-opacity:1.0000; stroke:none;">
<circle cx="37.6450" cy="27.0250" r="0.9000" /> 
</g>
<g style="fill:#C83434; fill-opacity:1.0000; stroke:none;">
<circle cx="30.0250" cy="33.0250" r="0.9000" /> 
</g>
<g style="fill:#C83434; fill-opacity:1.0000; stroke:none;">
<circle cx="37.6450" cy="33.0250" r="0.9000" /> 
</g>
<g style="fill:none; 
stroke:#C83434; stroke-width:0.2500; stroke-opacity:1; 
stroke-linecap:round; stroke-linejoin:round;">
<path d="M24.5250 8.5250
L26.0250 10.5250
" />
<path d="M30.0250 27.0250
L30.0250 33.0250
" />
<path d="M24.6450 8.4850
L24.5250 8.5250
" />
<path d="M26.0250 10.5250
L30.0250 27.0250
" />
<path d="M30.0250 27.0250
L43.0250 20.0250
" />
<path d="M43.0250 20.0250
L45.5250 7.0250
" />
<path d="M45.5250 7.0250
L45.5650 7.0250
" />
<path d="M9.5250 11.0250
L10.7750 13.0250
" />
<path d="M9.4050 11.0250
L9.5250 11.0250
" />
<path d="M13.7750 27.7750
L20.2750 27.7750
" />
<path d="M10.7750 13.0250
L13.7750 27.7750
" />
<path d="M21.7750 29.0250
L20.2750 32.2750
" />
<path d="M24.5250 6.0250
L43.0250 7.0250
" />
<path d="M23.2750 8.0250
L21.7750 29.0250
" />
<path d="M24.6450 5.9450
L24.5250 6.0250
" />
<path d="M24.5250 6.0250
L23.2750 8.0250
" />
<path d="M24.6450 5.9450
L24.5250 6.0250
" />
<path d="M20.2750 32.2750
L13.7750 32.2750
" />
<path d="M48.0250 7.0250
L48.1050 7.0250
" />
<path d="M48.0250 20.0250
L48.0250 7.0250
" />
<path d="M48.1050 20.0250
L48.0250 20.0250
" />
<path d="M50.5250 20.0250
L50.5250 7.0250
" />
<path d="M37.6450 27.0250
L37.5250 27.0250
" />
<path d="M49.2750 21.0250
L50.5250 20.0250
" />
<path d="M50.5250 7.0250
L50.6450 7.0250
" />
<path d="M50.6450 20.0250
L50.5250 20.0250
" />
<path d="M37.5250 27.0250
L49.2750 21.0250
" />
<path d="M50.5250 20.0250
L50.6450 20.0250
" />
<path style="fill:#4D7FC4; fill-opacity:1.0000; stroke:none;fill-rule:evenodd;"
d="M 42.1250,20.9250
42.1250,19.1250
43.9250,19.1250
43.9250,20.9250
Z" /> 
</g>
<g style="fill:#4D7FC4; fill-opacity:1.0000; stroke:none;">
<circle cx="45.5650" cy="20.0250" r="0.9000" /> 
</g>
<g style="fill:#4D7FC4; fill-opacity:1.0000; stroke:none;">
<circle cx="48.1050" cy="20.0250" r="0.9000" /> 
</g>
<g style="fill:#4D7FC4; fill-opacity:1.0000; stroke:none;">
<circle cx="50.6450" cy="20.0250" r="0.9000" /> 
</g>
<g style="fill:#4D7FC4; fill-opacity:1.0000; stroke:none;">
<circle cx="13.7750" cy="27.7750" r="1.0000" /> 
</g>
<g style="fill:#4D7FC4; fill-opacity:1.0000; stroke:none;">
<circle cx="20.2750" cy="27.7750" r="1.0000" /> 
</g>
<g style="fill:#4D7FC4; fill-opacity:1.0000; stroke:none;">
<circle cx="13.7750" cy="32.2750" r="1.0000" /> 
</g>
<g style="fill:#4D7FC4; fill-opacity:1.0000; stroke:none;">
<circle cx="20.2750" cy="32.2750" r="1.0000" /> 
<path style="fill:#4D7FC4; fill-opacity:1.0000; stroke:none;fill-rule:evenodd;"
d="M 42.1250,7.9250
42.1250,6.1250
43.9250,6.1250
43.9250,7.9250
Z" /> 
</g>
<g style="fill:#4D7FC4; fill-opacity:1.0000; stroke:none;">
<circle cx="45.5650" cy="7.0250" r="0.9000" /> 
</g>
<g style="fill:#4D7FC4; fill-opacity:1.0000; stroke:none;">
<circle cx="48.1050" cy="7.0250" r="0.9000" /> 
</g>
<g style="fill:#4D7FC4; fill-opacity:1.0000; stroke:none;">
<circle cx="50.6450" cy="7.0250" r="0.9000" /> 
</g>
<g style="fill:#4D7FC4; fill-opacity:1.0000; stroke:none;">
<circle cx="9.4050" cy="3.4050" r="0.9000" /> 
</g>
<g style="fill:#4D7FC4; fill-opacity:1.0000; stroke:none;">
<circle cx="9.4050" cy="5.9450" r="0.9000" /> 
</g>
<g style="fill:#4D7FC4; fill-opacity:1.0000; stroke:none;">
<circle cx="9.4050" cy="8.4850" r="0.9000" /> 
</g>
<g style="fill:#4D7FC4; fill-opacity:1.0000; stroke:none;">
<circle cx="9.4050" cy="11.0250" r="0.9000" /> 
</g>
<g style="fill:#4D7FC4; fill-opacity:1.0000; stroke:none;">
<circle cx="9.4050" cy="13.5650" r="0.9000" /> 
</g>
<g style="fill:#4D7FC4; fill-opacity:1.0000; stroke:none;">
<circle cx="9.4050" cy="16.1050" r="0.9000" /> 
</g>
<g style="fill:#4D7FC4; fill-opacity:1.0000; stroke:none;">
<circle cx="9.4050" cy="18.6450" r="0.9000" /> 
</g>
<g style="fill:#4D7FC4; fill-opacity:1.0000; stroke:none;">
<circle cx="24.6450" cy="18.6450" r="0.9000" /> 
</g>
<g style="fill:#4D7FC4; fill-opacity:1.0000; stroke:none;">
<circle cx="24.6450" cy="16.1050" r="0.9000" /> 
</g>
<g style="fill:#4D7FC4; fill-opacity:1.0000; stroke:none;">
<circle cx="24.6450" cy="13.5650" r="0.9000" /> 
</g>
<g style="fill:#4D7FC4; fill-opacity:1.0000; stroke:none;">
<circle cx="24.6450" cy="11.0250" r="0.9000" /> 
</g>
<g style="fill:#4D7FC4; fill-opacity:1.0000; stroke:none;">
<circle cx="24.6450" cy="8.4850" r="0.9000" /> 
</g>
<g style="fill:#4D7FC4; fill-opacity:1.0000; stroke:none;">
<circle cx="24.6450" cy="5.9450" r="0.9000" /> 
</g>
<g style="fill:#4D7FC4; fill-opacity:1.0000; stroke:none;">
<circle cx="24.6450" cy="3.4050" r="0.9000" /> 
</g>
<g style="fill:#4D7FC4; fill-opacity:1.0000; stroke:none;">
<circle cx="30.0250" cy="27.0250" r="0.9000" /> 
</g>
<g style="fill:#4D7FC4; fill-opacity:1.0000; stroke:none;">
<circle cx="37.6450" cy="27.0250" r="0.9000" /> 
</g>
<g style="fill:#4D7FC4; fill-opacity:1.0000; stroke:none;">
<circle cx="30.0250" cy="33.0250" r="0.9000" /> 
</g>
<g style="fill:#4D7FC4; fill-opacity:1.0000; stroke:none;">
<circle cx="37.6450" cy="33.0250" r="0.9000" /> 
</g>
<g style="fill:none; 
stroke:#4D7FC4; stroke-width:0.2500; stroke-opacity:1; 
stroke-linecap:round; stroke-linejoin:round;">
<path d="M45.5250 20.0250
L45.5650 20.0250
" />
<path d="M43.0250 7.0250
L45.5250 20.0250
" />
<path d="M36.5250 32.7750
L37.5250 33.0250
" />
<path d="M48.0250 20.0250
L48.1050 20.0250
" />
<path d="M37.6450 33.0250
L37.5250 33.0250
" />
<path d="M9.4050 16.1050
L9.5250 16.0250
" />
<path d="M9.5250 16.0250
L36.5250 32.7750
" />
<path d="M37.5250 33.0250
L37.6450 33.0250
" />
<path d="M37.5250 33.0250
L48.0250 20.0250
" />
<path d="M9.5250 13.5250
L37.5250 27.0250
" />
<path d="M9.4050 13.5650
L9.5250 13.5250
" />
<path d="M37.5250 27.0250
L37.6450 27.0250
" />
</g>
<g style="fill:none; 
stroke:#F2EDA1; stroke-width:0.1300; stroke-opacity:1; 
stroke-linecap:round; stroke-linejoin:round;">
<text x="17.0250" y="2.1250"
textLength="2.6300" font-size="1.0667" lengthAdjust="spacingAndGlyphs"
text-anchor="middle" opacity="0" stroke-opacity="0">USB</text>
<g class="stroked-text"><desc>USB</desc>
<path d="M16.0155 1.2883
L16.0155 1.9360
" />
<path d="M16.0155 1.9360
L16.0536 2.0121
" />
<path d="M16.0536 2.0121
L16.0917 2.0502
" />
<path d="M16.0917 2.0502
L16.1679 2.0883
" />
<path d="M16.1679 2.0883
L16.3202 2.0883
" />
<path d="M16.3202 2.0883
L16.3964 2.0502
" />
<path d="M16.3964 2.0502
L16.4345 2.0121
" />
<path d="M16.4345 2.0121
L16.4726 1.9360
" />
<path d="M16.4726 1.9360
L16.4726 1.2883
" />
<path d="M16.8155 2.0502
L16.9298 2.0883
" />
<path d="M16.9298 2.0883
L17.1202 2.0883
" />
<path d="M17.1202 2.0883
L17.1964 2.0502
" />
<path d="M17.1964 2.0502
L17.2345 2.0121
" />
<path d="M17.2345 2.0121
L17.2726 1.9360
" />
<path d="M17.2726 1.9360
L17.2726 1.8598
" />
<path d="M17.2726 1.8598
L17.2345 1.7836
" />
<path d="M17.2345 1.7836
L17.1964 1.7455
" />
<path d="M17.1964 1.7455
L17.1202 1.7074
" />
<path d="M17.1202 1.7074
L16.9679 1.6693
" />
<path d="M16.9679 1.6693
L16.8917 1.6312
" />
<path d="M16.8917 1.6312
L16.8536 1.5931
" />
<path d="M16.8536 1.5931
L16.8155 1.5169
" />
<path d="M16.8155 1.5169
L16.8155 1.4407
" />
<path d="M16.8155 1.4407
L16.8536 1.3645
" />
<path d="M16.8536 1.3645
L16.8917 1.3264
" />
<path d="M16.8917 1.3264
L16.9679 1.2883
" />
<path d="M16.9679 1.2883
L17.1583 1.2883
" />
<path d="M17.1583 1.2883
L17.2726 1.3264
" />
<path d="M17.8821 1.6693
L17.9964 1.7074
" />
<path d="M17.9964 1.7074
L18.0345 1.7455
" />
<path d="M18.0345 1.7455
L18.0726 1.8217
" />
<path d="M18.0726 1.8217
L18.0726 1.9360
" />
<path d="M18.0726 1.9360
L18.0345 2.0121
" />
<path d="M18.0345 2.0121
L17.9964 2.0502
" />
<path d="M17.9964 2.0502
L17.9202 2.0883
" />
<path d="M17.9202 2.0883
L17.6155 2.0883
" />
<path d="M17.6155 2.0883
L17.6155 1.2883
" />
<path d="M17.6155 1.2883
L17.8821 1.2883
" />
<path d="M17.8821 1.2883
L17.9583 1.3264
" />
<path d="M17.9583 1.3264
L17.9964 1.3645
" />
<path d="M17.9964 1.3645
L18.0345 1.4407
" />
<path d="M18.0345 1.4407
L18.0345 1.5169
" />
<path d="M18.0345 1.5169
L17.9964 1.5931
" />
<path d="M17.9964 1.5931
L17.9583 1.6312
" />
<path d="M17.9583 1.6312
L17.8821 1.6693
" />
<path d="M17.8821 1.6693
L17.6155 1.6693
" />
</g><text x="17.0250" y="36.4250"
textLength="8.7633" font-size="1.0667" lengthAdjust="spacingAndGlyphs"
text-anchor="middle" opacity="0" stroke-opacity="0">START / STOP</text>
<g class="stroked-text"><desc>START / STOP</desc>
<path d="M12.9107 36.3502
L13.0250 36.3883
" />
<path d="M13.0250 36.3883
L13.2155 36.3883
" />
<path d="M13.2155 36.3883
L13.2917 36.3502
" />
<path d="M13.2917 36.3502
L13.3298 36.3121
" />
<path d="M13.3298 36.3121
L13.3679 36.2360
" />
<path d="M13.3679 36.2360
L13.3679 36.1598
" />
<path d="M13.3679 36.1598
L13.3298 36.0836
" />
<path d="M13.3298 36.0836
L13.2917 36.0455
" />
<path d="M13.2917 36.0455
L13.2155 36.0074
" />
<path d="M13.2155 36.0074
L13.0631 35.9693
" />
<path d="M13.0631 35.9693
L12.9869 35.9312
" />
<path d="M12.9869 35.9312
L12.9488 35.8931
" />
<path d="M12.9488 35.8931
L12.9107 35.8169
" />
<path d="M12.9107 35.8169
L12.9107 35.7407
" />
<path d="M12.9107 35.7407
L12.9488 35.6645
" />
<path d="M12.9488 35.6645
L12.9869 35.6264
" />
<path d="M12.9869 35.6264
L13.0631 35.5883
" />
<path d="M13.0631 35.5883
L13.2536 35.5883
" />
<path d="M13.2536 35.5883
L13.3679 35.6264
" />
<path d="M13.5964 35.5883
L14.0536 35.5883
" />
<path d="M13.8250 36.3883
L13.8250 35.5883
" />
<path d="M14.2821 36.1598
L14.6631 36.1598
" />
<path d="M14.2060 36.3883
L14.4726 35.5883
" />
<path d="M14.4726 35.5883
L14.7393 36.3883
" />
<path d="M15.4631 36.3883
L15.1964 36.0074
" />
<path d="M15.0060 36.3883
L15.0060 35.5883
" />
<path d="M15.0060 35.5883
L15.3107 35.5883
" />
<path d="M15.3107 35.5883
L15.3869 35.6264
" />
<path d="M15.3869 35.6264
L15.4250 35.6645
" />
<path d="M15.4250 35.6645
L15.4631 35.7407
" />
<path d="M15.4631 35.7407
L15.4631 35.8550
" />
<path d="M15.4631 35.8550
L15.4250 35.9312
" />
<path d="M15.4250 35.9312
L15.3869 35.9693
" />
<path d="M15.3869 35.9693
L15.3107 36.0074
" />
<path d="M15.3107 36.0074
L15.0060 36.0074
" />
<path d="M15.6917 35.5883
L16.1488 35.5883
" />
<path d="M15.9202 36.3883
L15.9202 35.5883
" />
<path d="M17.5964 35.5502
L16.9107 36.5788
" />
<path d="M18.4345 36.3502
L18.5488 36.3883
" />
<path d="M18.5488 36.3883
L18.7393 36.3883
" />
<path d="M18.7393 36.3883
L18.8155 36.3502
" />
<path d="M18.8155 36.3502
L18.8536 36.3121
" />
<path d="M18.8536 36.3121
L18.8917 36.2360
" />
<path d="M18.8917 36.2360
L18.8917 36.1598
" />
<path d="M18.8917 36.1598
L18.8536 36.0836
" />
<path d="M18.8536 36.0836
L18.8155 36.0455
" />
<path d="M18.8155 36.0455
L18.7393 36.0074
" />
<path d="M18.7393 36.0074
L18.5869 35.9693
" />
<path d="M18.5869 35.9693
L18.5107 35.9312
" />
<path d="M18.5107 35.9312
L18.4726 35.8931
" />
<path d="M18.4726 35.8931
L18.4345 35.8169
" />
<path d="M18.4345 35.8169
L18.4345 35.7407
" />
<path d="M18.4345 35.7407
L18.4726 35.6645
" />
<path d="M18.4726 35.6645
L18.5107 35.6264
" />
<path d="M18.5107 35.6264
L18.5869 35.5883
" />
<path d="M18.5869 35.5883
L18.7774 35.5883
" />
<path d="M18.7774 35.5883
L18.8917 35.6264
" />
<path d="M19.1202 35.5883
L19.5774 35.5883
" />
<path d="M19.3488 36.3883
L19.3488 35.5883
" />
<path d="M19.9964 35.5883
L20.1488 35.5883
" />
<path d="M20.1488 35.5883
L20.2250 35.6264
" />
<path d="M20.2250 35.6264
L20.3012 35.7026
" />
<path d="M20.3012 35.7026
L20.3393 35.8550
" />
<path d="M20.3393 35.8550
L20.3393 36.1217
" />
<path d="M20.3393 36.1217
L20.3012 36.2740
" />
<path d="M20.3012 36.2740
L20.2250 36.3502
" />
<path d="M20.2250 36.3502
L20.1488 36.3883
" />
<path d="M20.1488 36.3883
L19.9964 36.3883
" />
<path d="M19.9964 36.3883
L19.9202 36.3502
" />
<path d="M19.9202 36.3502
L19.8440 36.2740
" />
<path d="M19.8440 36.2740
L19.8060 36.1217
" />
<path d="M19.8060 36.1217
L19.8060 35.8550
" />
<path d="M19.8060 35.8550
L19.8440 35.7026
" />
<path d="M19.8440 35.7026
L19.9202 35.6264
" />
<path d="M19.9202 35.6264
L19.9964 35.5883
" />
<path d="M20.6821 36.3883
L20.6821 35.5883
" />
<path d="M20.6821 35.5883
L20.9869 35.5883
" />
<path d="M20.9869 35.5883
L21.0631 35.6264
" />
<path d="M21.0631 35.6264
L21.1012 35.6645
" />
<path d="M21.1012 35.6645
L21.1393 35.7407
" />
<path d="M21.1393 35.7407
L21.1393 35.8550
" />
<path d="M21.1393 35.8550
L21.1012 35.9312
" />
<path d="M21.1012 35.9312
L21.0631 35.9693
" />
<path d="M21.0631 35.9693
L20.9869 36.0074
" />
<path d="M20.9869 36.0074
L20.6821 36.0074
" />
</g><text x="41.0250" y="30.4250"
textLength="2.6681" font-size="1.0667" lengthAdjust="spacingAndGlyphs"
text-anchor="middle" opacity="0" stroke-opacity="0">DNP</text>
<g class="stroked-text"><desc>DNP</desc>
<path d="M39.9964 30.3883
L39.9964 29.5883
" />
<path d="M39.9964 29.5883
L40.1869 29.5883
" />
<path d="M40.1869 29.5883
L40.3012 29.6264
" />
<path d="M40.3012 29.6264
L40.3774 29.7026
" />
<path d="M40.3774 29.7026
L40.4155 29.7788
" />
<path d="M40.4155 29.7788
L40.4536 29.9312
" />
<path d="M40.4536 29.9312
L40.4536 30.0455
" />
<path d="M40.4536 30.0455
L40.4155 30.1979
" />
<path d="M40.4155 30.1979
L40.3774 30.2740
" />
<path d="M40.3774 30.2740
L40.3012 30.3502
" />
<path d="M40.3012 30.3502
L40.1869 30.3883
" />
<path d="M40.1869 30.3883
L39.9964 30.3883
" />
<path d="M40.7964 30.3883
L40.7964 29.5883
" />
<path d="M40.7964 29.5883
L41.2536 30.3883
" />
<path d="M41.2536 30.3883
L41.2536 29.5883
" />
<path d="M41.6345 30.3883
L41.6345 29.5883
" />
<path d="M41.6345 29.5883
L41.9393 29.5883
" />
<path d="M41.9393 29.5883
L42.0155 29.6264
" />
<path d="M42.0155 29.6264
L42.0536 29.6645
" />
<path d="M42.0536 29.6645
L42.0917 29.7407
" />
<path d="M42.0917 29.7407
L42.0917 29.8550
" />
<path d="M42.0917 29.8550
L42.0536 29.9312
" />
<path d="M42.0536 29.9312
L42.0155 29.9693
" />
<path d="M42.0155 29.9693
L41.9393 30.0074
" />
<path d="M41.9393 30.0074
L41.6345 30.0074
" />
</g><text x="43.0250" y="4.4250"
textLength="2.6681" font-size="1.0667" lengthAdjust="spacingAndGlyphs"
text-anchor="middle" opacity="0" stroke-opacity="0">GND</text>
<g class="stroked-text"><desc>GND</desc>
<path d="M42.4155 3.6264
L42.3393 3.5883
" />
<path d="M42.3393 3.5883
L42.2250 3.5883
" />
<path d="M42.2250 3.5883
L42.1107 3.6264
" />
<path d="M42.1107 3.6264
L42.0345 3.7026
" />
<path d="M42.0345 3.7026
L41.9964 3.7788
" />
<path d="M41.9964 3.7788
L41.9583 3.9312
" />
<path d="M41.9583 3.9312
L41.9583 4.0455
" />
<path d="M41.9583 4.0455
L41.9964 4.1979
" />
<path d="M41.9964 4.1979
L42.0345 4.2740
" />
<path d="M42.0345 4.2740
L42.1107 4.3502
" />
<path d="M42.1107 4.3502
L42.2250 4.3883
" />
<path d="M42.2250 4.3883
L42.3012 4.3883
" />
<path d="M42.3012 4.3883
L42.4155 4.3502
" />
<path d="M42.4155 4.3502
L42.4536 4.3121
" />
<path d="M42.4536 4.3121
L42.4536 4.0455
" />
<path d="M42.4536 4.0455
L42.3012 4.0455
" />
<path d="M42.7964 4.3883
L42.7964 3.5883
" />
<path d="M42.7964 3.5883
L43.2536 4.3883
" />
<path d="M43.2536 4.3883
L43.2536 3.5883
" />
<path d="M43.6345 4.3883
L43.6345 3.5883
" />
<path d="M43.6345 3.5883
L43.8250 3.5883
" />
<path d="M43.8250 3.5883
L43.9393 3.6264
" />
<path d="M43.9393 3.6264
L44.0155 3.7026
" />
<path d="M44.0155 3.7026
L44.0536 3.7788
" />
<path d="M44.0536 3.7788
L44.0917 3.9312
" />
<path d="M44.0917 3.9312
L44.0917 4.0455
" />
<path d="M44.0917 4.0455
L44.0536 4.1979
" />
<path d="M44.0536 4.1979
L44.0155 4.2740
" />
<path d="M44.0155 4.2740
L43.9393 4.3502
" />
<path d="M43.9393 4.3502
L43.8250 4.3883
" />
<path d="M43.8250 4.3883
L43.6345 4.3883
" />
</g><text x="43.0250" y="17.4250"
textLength="2.4395" font-size="1.0667" lengthAdjust="spacingAndGlyphs"
text-anchor="middle" opacity="0" stroke-opacity="0">3V3</text>
<g class="stroked-text"><desc>3V3</desc>
<path d="M42.0345 16.5883
L42.5298 16.5883
" />
<path d="M42.5298 16.5883
L42.2631 16.8931
" />
<path d="M42.2631 16.8931
L42.3774 16.8931
" />
<path d="M42.3774 16.8931
L42.4536 16.9312
" />
<path d="M42.4536 16.9312
L42.4917 16.9693
" />
<path d="M42.4917 16.9693
L42.5298 17.0455
" />
<path d="M42.5298 17.0455
L42.5298 17.2360
" />
<path d="M42.5298 17.2360
L42.4917 17.3121
" />
<path d="M42.4917 17.3121
L42.4536 17.3502
" />
<path d="M42.4536 17.3502
L42.3774 17.3883
" />
<path d="M42.3774 17.3883
L42.1488 17.3883
" />
<path d="M42.1488 17.3883
L42.0726 17.3502
" />
<path d="M42.0726 17.3502
L42.0345 17.3121
" />
<path d="M42.7583 16.5883
L43.0250 17.3883
" />
<path d="M43.0250 17.3883
L43.2917 16.5883
" />
<path d="M43.4821 16.5883
L43.9774 16.5883
" />
<path d="M43.9774 16.5883
L43.7107 16.8931
" />
<path d="M43.7107 16.8931
L43.8250 16.8931
" />
<path d="M43.8250 16.8931
L43.9012 16.9312
" />
<path d="M43.9012 16.9312
L43.9393 16.9693
" />
<path d="M43.9393 16.9693
L43.9774 17.0455
" />
<path d="M43.9774 17.0455
L43.9774 17.2360
" />
<path d="M43.9774 17.2360
L43.9393 17.3121
" />
<path d="M43.9393 17.3121
L43.9012 17.3502
" />
<path d="M43.9012 17.3502
L43.8250 17.3883
" />
<path d="M43.8250 17.3883
L43.5964 17.3883
" />
<path d="M43.5964 17.3883
L43.5202 17.3502
" />
<path d="M43.5202 17.3502
L43.4821 17.3121
" />
</g><text x="45.5650" y="4.4250"
textLength="2.4395" font-size="1.0667" lengthAdjust="spacingAndGlyphs"
text-anchor="middle" opacity="0" stroke-opacity="0">3V3</text>
<g class="stroked-text"><desc>3V3</desc>
<path d="M44.5745 3.5883
L45.0698 3.5883
" />
<path d="M45.0698 3.5883
L44.8031 3.8931
" />
<path d="M44.8031 3.8931
L44.9174 3.8931
" />
<path d="M44.9174 3.8931
L44.9936 3.9312
" />
<path d="M44.9936 3.9312
L45.0317 3.9693
" />
<path d="M45.0317 3.9693
L45.0698 4.0455
" />
<path d="M45.0698 4.0455
L45.0698 4.2360
" />
<path d="M45.0698 4.2360
L45.0317 4.3121
" />
<path d="M45.0317 4.3121
L44.9936 4.3502
" />
<path d="M44.9936 4.3502
L44.9174 4.3883
" />
<path d="M44.9174 4.3883
L44.6888 4.3883
" />
<path d="M44.6888 4.3883
L44.6126 4.3502
" />
<path d="M44.6126 4.3502
L44.5745 4.3121
" />
<path d="M45.2983 3.5883
L45.5650 4.3883
" />
<path d="M45.5650 4.3883
L45.8317 3.5883
" />
<path d="M46.0221 3.5883
L46.5174 3.5883
" />
<path d="M46.5174 3.5883
L46.2507 3.8931
" />
<path d="M46.2507 3.8931
L46.3650 3.8931
" />
<path d="M46.3650 3.8931
L46.4412 3.9312
" />
<path d="M46.4412 3.9312
L46.4793 3.9693
" />
<path d="M46.4793 3.9693
L46.5174 4.0455
" />
<path d="M46.5174 4.0455
L46.5174 4.2360
" />
<path d="M46.5174 4.2360
L46.4793 4.3121
" />
<path d="M46.4793 4.3121
L46.4412 4.3502
" />
<path d="M46.4412 4.3502
L46.3650 4.3883
" />
<path d="M46.3650 4.3883
L46.1364 4.3883
" />
<path d="M46.1364 4.3883
L46.0602 4.3502
" />
<path d="M46.0602 4.3502
L46.0221 4.3121
" />
</g><text x="45.5650" y="17.4250"
textLength="2.6681" font-size="1.0667" lengthAdjust="spacingAndGlyphs"
text-anchor="middle" opacity="0" stroke-opacity="0">GND</text>
<g class="stroked-text"><desc>GND</desc>
<path d="M44.9555 16.6264
L44.8793 16.5883
" />
<path d="M44.8793 16.5883
L44.7650 16.5883
" />
<path d="M44.7650 16.5883
L44.6507 16.6264
" />
<path d="M44.6507 16.6264
L44.5745 16.7026
" />
<path d="M44.5745 16.7026
L44.5364 16.7788
" />
<path d="M44.5364 16.7788
L44.4983 16.9312
" />
<path d="M44.4983 16.9312
L44.4983 17.0455
" />
<path d="M44.4983 17.0455
L44.5364 17.1979
" />
<path d="M44.5364 17.1979
L44.5745 17.2740
" />
<path d="M44.5745 17.2740
L44.6507 17.3502
" />
<path d="M44.6507 17.3502
L44.7650 17.3883
" />
<path d="M44.7650 17.3883
L44.8412 17.3883
" />
<path d="M44.8412 17.3883
L44.9555 17.3502
" />
<path d="M44.9555 17.3502
L44.9936 17.3121
" />
<path d="M44.9936 17.3121
L44.9936 17.0455
" />
<path d="M44.9936 17.0455
L44.8412 17.0455
" />
<path d="M45.3364 17.3883
L45.3364 16.5883
" />
<path d="M45.3364 16.5883
L45.7936 17.3883
" />
<path d="M45.7936 17.3883
L45.7936 16.5883
" />
<path d="M46.1745 17.3883
L46.1745 16.5883
" />
<path d="M46.1745 16.5883
L46.3650 16.5883
" />
<path d="M46.3650 16.5883
L46.4793 16.6264
" />
<path d="M46.4793 16.6264
L46.5555 16.7026
" />
<path d="M46.5555 16.7026
L46.5936 16.7788
" />
<path d="M46.5936 16.7788
L46.6317 16.9312
" />
<path d="M46.6317 16.9312
L46.6317 17.0455
" />
<path d="M46.6317 17.0455
L46.5936 17.1979
" />
<path d="M46.5936 17.1979
L46.5555 17.2740
" />
<path d="M46.5555 17.2740
L46.4793 17.3502
" />
<path d="M46.4793 17.3502
L46.3650 17.3883
" />
<path d="M46.3650 17.3883
L46.1745 17.3883
" />
</g><text x="46.8250" y="11.9250"
textLength="3.2395" font-size="1.0667" lengthAdjust="spacingAndGlyphs"
text-anchor="middle" opacity="0" stroke-opacity="0">OLED</text>
<g class="stroked-text"><desc>OLED</desc>
<path d="M45.6631 11.0883
L45.8155 11.0883
" />
<path d="M45.8155 11.0883
L45.8917 11.1264
" />
<path d="M45.8917 11.1264
L45.9679 11.2026
" />
<path d="M45.9679 11.2026
L46.0060 11.3550
" />
<path d="M46.0060 11.3550
L46.0060 11.6217
" />
<path d="M46.0060 11.6217
L45.9679 11.7740
" />
<path d="M45.9679 11.7740
L45.8917 11.8502
" />
<path d="M45.8917 11.8502
L45.8155 11.8883
" />
<path d="M45.8155 11.8883
L45.6631 11.8883
" />
<path d="M45.6631 11.8883
L45.5869 11.8502
" />
<path d="M45.5869 11.8502
L45.5107 11.7740
" />
<path d="M45.5107 11.7740
L45.4726 11.6217
" />
<path d="M45.4726 11.6217
L45.4726 11.3550
" />
<path d="M45.4726 11.3550
L45.5107 11.2026
" />
<path d="M45.5107 11.2026
L45.5869 11.1264
" />
<path d="M45.5869 11.1264
L45.6631 11.0883
" />
<path d="M46.7298 11.8883
L46.3488 11.8883
" />
<path d="M46.3488 11.8883
L46.3488 11.0883
" />
<path d="M46.9964 11.4693
L47.2631 11.4693
" />
<path d="M47.3774 11.8883
L46.9964 11.8883
" />
<path d="M46.9964 11.8883
L46.9964 11.0883
" />
<path d="M46.9964 11.0883
L47.3774 11.0883
" />
<path d="M47.7202 11.8883
L47.7202 11.0883
" />
<path d="M47.7202 11.0883
L47.9107 11.0883
" />
<path d="M47.9107 11.0883
L48.0250 11.1264
" />
<path d="M48.0250 11.1264
L48.1012 11.2026
" />
<path d="M48.1012 11.2026
L48.1393 11.2788
" />
<path d="M48.1393 11.2788
L48.1774 11.4312
" />
<path d="M48.1774 11.4312
L48.1774 11.5455
" />
<path d="M48.1774 11.5455
L48.1393 11.6979
" />
<path d="M48.1393 11.6979
L48.1012 11.7740
" />
<path d="M48.1012 11.7740
L48.0250 11.8502
" />
<path d="M48.0250 11.8502
L47.9107 11.8883
" />
<path d="M47.9107 11.8883
L47.7202 11.8883
" />
</g><text x="46.8250" y="24.9250"
textLength="2.3633" font-size="1.0667" lengthAdjust="spacingAndGlyphs"
text-anchor="middle" opacity="0" stroke-opacity="0">IMU</text>
<g class="stroked-text"><desc>IMU</desc>
<path d="M45.9488 24.8883
L45.9488 24.0883
" />
<path d="M46.3298 24.8883
L46.3298 24.0883
" />
<path d="M46.3298 24.0883
L46.5964 24.6598
" />
<path d="M46.5964 24.6598
L46.8631 24.0883
" />
<path d="M46.8631 24.0883
L46.8631 24.8883
" />
<path d="M47.2440 24.0883
L47.2440 24.7360
" />
<path d="M47.2440 24.7360
L47.2821 24.8121
" />
<path d="M47.2821 24.8121
L47.3202 24.8502
" />
<path d="M47.3202 24.8502
L47.3964 24.8883
" />
<path d="M47.3964 24.8883
L47.5488 24.8883
" />
<path d="M47.5488 24.8883
L47.6250 24.8502
" />
<path d="M47.6250 24.8502
L47.6631 24.8121
" />
<path d="M47.6631 24.8121
L47.7012 24.7360
" />
<path d="M47.7012 24.7360
L47.7012 24.0883
" />
</g><text x="48.1050" y="4.4250"
textLength="2.4395" font-size="1.0667" lengthAdjust="spacingAndGlyphs"
text-anchor="middle" opacity="0" stroke-opacity="0">SCL</text>
<g class="stroked-text"><desc>SCL</desc>
<path d="M47.1526 4.3502
L47.2669 4.3883
" />
<path d="M47.2669 4.3883
L47.4574 4.3883
" />
<path d="M47.4574 4.3883
L47.5336 4.3502
" />
<path d="M47.5336 4.3502
L47.5717 4.3121
" />
<path d="M47.5717 4.3121
L47.6098 4.2360
" />
<path d="M47.6098 4.2360
L47.6098 4.1598
" />
<path d="M47.6098 4.1598
L47.5717 4.0836
" />
<path d="M47.5717 4.0836
L47.5336 4.0455
" />
<path d="M47.5336 4.0455
L47.4574 4.0074
" />
<path d="M47.4574 4.0074
L47.3050 3.9693
" />
<path d="M47.3050 3.9693
L47.2288 3.9312
" />
<path d="M47.2288 3.9312
L47.1907 3.8931
" />
<path d="M47.1907 3.8931
L47.1526 3.8169
" />
<path d="M47.1526 3.8169
L47.1526 3.7407
" />
<path d="M47.1526 3.7407
L47.1907 3.6645
" />
<path d="M47.1907 3.6645
L47.2288 3.6264
" />
<path d="M47.2288 3.6264
L47.3050 3.5883
" />
<path d="M47.3050 3.5883
L47.4955 3.5883
" />
<path d="M47.4955 3.5883
L47.6098 3.6264
" />
<path d="M48.4098 4.3121
L48.3717 4.3502
" />
<path d="M48.3717 4.3502
L48.2574 4.3883
" />
<path d="M48.2574 4.3883
L48.1812 4.3883
" />
<path d="M48.1812 4.3883
L48.0669 4.3502
" />
<path d="M48.0669 4.3502
L47.9907 4.2740
" />
<path d="M47.9907 4.2740
L47.9526 4.1979
" />
<path d="M47.9526 4.1979
L47.9145 4.0455
" />
<path d="M47.9145 4.0455
L47.9145 3.9312
" />
<path d="M47.9145 3.9312
L47.9526 3.7788
" />
<path d="M47.9526 3.7788
L47.9907 3.7026
" />
<path d="M47.9907 3.7026
L48.0669 3.6264
" />
<path d="M48.0669 3.6264
L48.1812 3.5883
" />
<path d="M48.1812 3.5883
L48.2574 3.5883
" />
<path d="M48.2574 3.5883
L48.3717 3.6264
" />
<path d="M48.3717 3.6264
L48.4098 3.6645
" />
<path d="M49.1336 4.3883
L48.7526 4.3883
" />
<path d="M48.7526 4.3883
L48.7526 3.5883
" />
</g><text x="48.1050" y="17.4250"
textLength="2.4395" font-size="1.0667" lengthAdjust="spacingAndGlyphs"
text-anchor="middle" opacity="0" stroke-opacity="0">SCL</text>
<g class="stroked-text"><desc>SCL</desc>
<path d="M47.1526 17.3502
L47.2669 17.3883
" />
<path d="M47.2669 17.3883
L47.4574 17.3883
" />
<path d="M47.4574 17.3883
L47.5336 17.3502
" />
<path d="M47.5336 17.3502
L47.5717 17.3121
" />
<path d="M47.5717 17.3121
L47.6098 17.2360
" />
<path d="M47.6098 17.2360
L47.6098 17.1598
" />
<path d="M47.6098 17.1598
L47.5717 17.0836
" />
<path d="M47.5717 17.0836
L47.5336 17.0455
" />
<path d="M47.5336 17.0455
L47.4574 17.0074
" />
<path d="M47.4574 17.0074
L47.3050 16.9693
" />
<path d="M47.3050 16.9693
L47.2288 16.9312
" />
<path d="M47.2288 16.9312
L47.1907 16.8931
" />
<path d="M47.1907 16.8931
L47.1526 16.8169
" />
<path d="M47.1526 16.8169
L47.1526 16.7407
" />
<path d="M47.1526 16.7407
L47.1907 16.6645
" />
<path d="M47.1907 16.6645
L47.2288 16.6264
" />
<path d="M47.2288 16.6264
L47.3050 16.5883
" />
<path d="M47.3050 16.5883
L47.4955 16.5883
" />
<path d="M47.4955 16.5883
L47.6098 16.6264
" />
<path d="M48.4098 17.3121
L48.3717 17.3502
" />
<path d="M48.3717 17.3502
L48.2574 17.3883
" />
<path d="M48.2574 17.3883
L48.1812 17.3883
" />
<path d="M48.1812 17.3883
L48.0669 17.3502
" />
<path d="M48.0669 17.3502
L47.9907 17.2740
" />
<path d="M47.9907 17.2740
L47.9526 17.1979
" />
<path d="M47.9526 17.1979
L47.9145 17.0455
" />
<path d="M47.9145 17.0455
L47.9145 16.9312
" />
<path d="M47.9145 16.9312
L47.9526 16.7788
" />
<path d="M47.9526 16.7788
L47.9907 16.7026
" />
<path d="M47.9907 16.7026
L48.0669 16.6264
" />
<path d="M48.0669 16.6264
L48.1812 16.5883
" />
<path d="M48.1812 16.5883
L48.2574 16.5883
" />
<path d="M48.2574 16.5883
L48.3717 16.6264
" />
<path d="M48.3717 16.6264
L48.4098 16.6645
" />
<path d="M49.1336 17.3883
L48.7526 17.3883
" />
<path d="M48.7526 17.3883
L48.7526 16.5883
" />
</g><text x="50.6450" y="4.4250"
textLength="2.4776" font-size="1.0667" lengthAdjust="spacingAndGlyphs"
text-anchor="middle" opacity="0" stroke-opacity="0">SDA</text>
<g class="stroked-text"><desc>SDA</desc>
<path d="M49.6736 4.3502
L49.7879 4.3883
" />
<path d="M49.7879 4.3883
L49.9783 4.3883
" />
<path d="M49.9783 4.3883
L50.0545 4.3502
" />
<path d="M50.0545 4.3502
L50.0926 4.3121
" />
<path d="M50.0926 4.3121
L50.1307 4.2360
" />
<path d="M50.1307 4.2360
L50.1307 4.1598
" />
<path d="M50.1307 4.1598
L50.0926 4.0836
" />
<path d="M50.0926 4.0836
L50.0545 4.0455
" />
<path d="M50.0545 4.0455
L49.9783 4.0074
" />
<path d="M49.9783 4.0074
L49.8260 3.9693
" />
<path d="M49.8260 3.9693
L49.7498 3.9312
" />
<path d="M49.7498 3.9312
L49.7117 3.8931
" />
<path d="M49.7117 3.8931
L49.6736 3.8169
" />
<path d="M49.6736 3.8169
L49.6736 3.7407
" />
<path d="M49.6736 3.7407
L49.7117 3.6645
" />
<path d="M49.7117 3.6645
L49.7498 3.6264
" />
<path d="M49.7498 3.6264
L49.8260 3.5883
" />
<path d="M49.8260 3.5883
L50.0164 3.5883
" />
<path d="M50.0164 3.5883
L50.1307 3.6264
" />
<path d="M50.4736 4.3883
L50.4736 3.5883
" />
<path d="M50.4736 3.5883
L50.6640 3.5883
" />
<path d="M50.6640 3.5883
L50.7783 3.6264
" />
<path d="M50.7783 3.6264
L50.8545 3.7026
" />
<path d="M50.8545 3.7026
L50.8926 3.7788
" />
<path d="M50.8926 3.7788
L50.9307 3.9312
" />
<path d="M50.9307 3.9312
L50.9307 4.0455
" />
<path d="M50.9307 4.0455
L50.8926 4.1979
" />
<path d="M50.8926 4.1979
L50.8545 4.2740
" />
<path d="M50.8545 4.2740
L50.7783 4.3502
" />
<path d="M50.7783 4.3502
L50.6640 4.3883
" />
<path d="M50.6640 4.3883
L50.4736 4.3883
" />
<path d="M51.2355 4.1598
L51.6164 4.1598
" />
<path d="M51.1593 4.3883
L51.4260 3.5883
" />
<path d="M51.4260 3.5883
L51.6926 4.3883
" />
</g><text x="50.6450" y="17.4250"
textLength="2.4776" font-size="1.0667" lengthAdjust="spacingAndGlyphs"
text-anchor="middle" opacity="0" stroke-opacity="0">SDA</text>
<g class="stroked-text"><desc>SDA</desc>
<path d="M49.6736 17.3502
L49.7879 17.3883
" />
<path d="M49.7879 17.3883
L49.9783 17.3883
" />
<path d="M49.9783 17.3883
L50.0545 17.3502
" />
<path d="M50.0545 17.3502
L50.0926 17.3121
" />
<path d="M50.0926 17.3121
L50.1307 17.2360
" />
<path d="M50.1307 17.2360
L50.1307 17.1598
" />
<path d="M50.1307 17.1598
L50.0926 17.0836
" />
<path d="M50.0926 17.0836
L50.0545 17.0455
" />
<path d="M50.0545 17.0455
L49.9783 17.0074
" />
<path d="M49.9783 17.0074
L49.8260 16.9693
" />
<path d="M49.8260 16.9693
L49.7498 16.9312
" />
<path d="M49.7498 16.9312
L49.7117 16.8931
" />
<path d="M49.7117 16.8931
L49.6736 16.8169
" />
<path d="M49.6736 16.8169
L49.6736 16.7407
" />
<path d="M49.6736 16.7407
L49.7117 16.6645
" />
<path d="M49.7117 16.6645
L49.7498 16.6264
" />
<path d="M49.7498 16.6264
L49.8260 16.5883
" />
<path d="M49.8260 16.5883
L50.0164 16.5883
" />
<path d="M50.0164 16.5883
L50.1307 16.6264
" />
<path d="M50.4736 17.3883
L50.4736 16.5883
" />
<path d="M50.4736 16.5883
L50.6640 16.5883
" />
<path d="M50.6640 16.5883
L50.7783 16.6264
" />
<path d="M50.7783 16.6264
L50.8545 16.7026
" />
<path d="M50.8545 16.7026
L50.8926 16.7788
" />
<path d="M50.8926 16.7788
L50.9307 16.9312
" />
<path d="M50.9307 16.9312
L50.9307 17.0455
" />
<path d="M50.9307 17.0455
L50.8926 17.1979
" />
<path d="M50.8926 17.1979
L50.8545 17.2740
" />
<path d="M50.8545 17.2740
L50.7783 17.3502
" />
<path d="M50.7783 17.3502
L50.6640 17.3883
" />
<path d="M50.6640 17.3883
L50.4736 17.3883
" />
<path d="M51.2355 17.1598
L51.6164 17.1598
" />
<path d="M51.1593 17.3883
L51.4260 16.5883
" />
<path d="M51.4260 16.5883
L51.6926 17.3883
" />
</g><text x="42.0250" y="37.6750"
textLength="15.6681" font-size="1.7333" lengthAdjust="spacingAndGlyphs"
text-anchor="middle" opacity="0" stroke-opacity="0">DriveDot  Rev A</text>
<g class="stroked-text"><desc>DriveDot  Rev A</desc>
<path d="M34.5655 37.6196
L34.5655 36.3196
" />
<path d="M34.5655 36.3196
L34.8750 36.3196
" />
<path d="M34.8750 36.3196
L35.0607 36.3815
" />
<path d="M35.0607 36.3815
L35.1845 36.5054
" />
<path d="M35.1845 36.5054
L35.2464 36.6292
" />
<path d="M35.2464 36.6292
L35.3083 36.8768
" />
<path d="M35.3083 36.8768
L35.3083 37.0625
" />
<path d="M35.3083 37.0625
L35.2464 37.3101
" />
<path d="M35.2464 37.3101
L35.1845 37.4339
" />
<path d="M35.1845 37.4339
L35.0607 37.5577
" />
<path d="M35.0607 37.5577
L34.8750 37.6196
" />
<path d="M34.8750 37.6196
L34.5655 37.6196
" />
<path d="M35.8655 37.6196
L35.8655 36.7530
" />
<path d="M35.8655 37.0006
L35.9274 36.8768
" />
<path d="M35.9274 36.8768
L35.9893 36.8149
" />
<path d="M35.9893 36.8149
L36.1131 36.7530
" />
<path d="M36.1131 36.7530
L36.2369 36.7530
" />
<path d="M36.6702 37.6196
L36.6702 36.7530
" />
<path d="M36.6702 36.3196
L36.6083 36.3815
" />
<path d="M36.6083 36.3815
L36.6702 36.4435
" />
<path d="M36.6702 36.4435
L36.7321 36.3815
" />
<path d="M36.7321 36.3815
L36.6702 36.3196
" />
<path d="M36.6702 36.3196
L36.6702 36.4435
" />
<path d="M37.1655 36.7530
L37.4750 37.6196
" />
<path d="M37.4750 37.6196
L37.7845 36.7530
" />
<path d="M38.7750 37.5577
L38.6512 37.6196
" />
<path d="M38.6512 37.6196
L38.4036 37.6196
" />
<path d="M38.4036 37.6196
L38.2798 37.5577
" />
<path d="M38.2798 37.5577
L38.2179 37.4339
" />
<path d="M38.2179 37.4339
L38.2179 36.9387
" />
<path d="M38.2179 36.9387
L38.2798 36.8149
" />
<path d="M38.2798 36.8149
L38.4036 36.7530
" />
<path d="M38.4036 36.7530
L38.6512 36.7530
" />
<path d="M38.6512 36.7530
L38.7750 36.8149
" />
<path d="M38.7750 36.8149
L38.8369 36.9387
" />
<path d="M38.8369 36.9387
L38.8369 37.0625
" />
<path d="M38.8369 37.0625
L38.2179 37.1863
" />
<path d="M39.3940 37.6196
L39.3940 36.3196
" />
<path d="M39.3940 36.3196
L39.7036 36.3196
" />
<path d="M39.7036 36.3196
L39.8893 36.3815
" />
<path d="M39.8893 36.3815
L40.0131 36.5054
" />
<path d="M40.0131 36.5054
L40.0750 36.6292
" />
<path d="M40.0750 36.6292
L40.1369 36.8768
" />
<path d="M40.1369 36.8768
L40.1369 37.0625
" />
<path d="M40.1369 37.0625
L40.0750 37.3101
" />
<path d="M40.0750 37.3101
L40.0131 37.4339
" />
<path d="M40.0131 37.4339
L39.8893 37.5577
" />
<path d="M39.8893 37.5577
L39.7036 37.6196
" />
<path d="M39.7036 37.6196
L39.3940 37.6196
" />
<path d="M40.8798 37.6196
L40.7560 37.5577
" />
<path d="M40.7560 37.5577
L40.6940 37.4958
" />
<path d="M40.6940 37.4958
L40.6321 37.3720
" />
<path d="M40.6321 37.3720
L40.6321 37.0006
" />
<path d="M40.6321 37.0006
L40.6940 36.8768
" />
<path d="M40.6940 36.8768
L40.7560 36.8149
" />
<path d="M40.7560 36.8149
L40.8798 36.7530
" />
<path d="M40.8798 36.7530
L41.0655 36.7530
" />
<path d="M41.0655 36.7530
L41.1893 36.8149
" />
<path d="M41.1893 36.8149
L41.2512 36.8768
" />
<path d="M41.2512 36.8768
L41.3131 37.0006
" />
<path d="M41.3131 37.0006
L41.3131 37.3720
" />
<path d="M41.3131 37.3720
L41.2512 37.4958
" />
<path d="M41.2512 37.4958
L41.1893 37.5577
" />
<path d="M41.1893 37.5577
L41.0655 37.6196
" />
<path d="M41.0655 37.6196
L40.8798 37.6196
" />
<path d="M41.6845 36.7530
L42.1798 36.7530
" />
<path d="M41.8702 36.3196
L41.8702 37.4339
" />
<path d="M41.8702 37.4339
L41.9321 37.5577
" />
<path d="M41.9321 37.5577
L42.0560 37.6196
" />
<path d="M42.0560 37.6196
L42.1798 37.6196
" />
<path d="M45.3369 37.6196
L44.9036 37.0006
" />
<path d="M44.5940 37.6196
L44.5940 36.3196
" />
<path d="M44.5940 36.3196
L45.0893 36.3196
" />
<path d="M45.0893 36.3196
L45.2131 36.3815
" />
<path d="M45.2131 36.3815
L45.2750 36.4435
" />
<path d="M45.2750 36.4435
L45.3369 36.5673
" />
<path d="M45.3369 36.5673
L45.3369 36.7530
" />
<path d="M45.3369 36.7530
L45.2750 36.8768
" />
<path d="M45.2750 36.8768
L45.2131 36.9387
" />
<path d="M45.2131 36.9387
L45.0893 37.0006
" />
<path d="M45.0893 37.0006
L44.5940 37.0006
" />
<path d="M46.3893 37.5577
L46.2655 37.6196
" />
<path d="M46.2655 37.6196
L46.0179 37.6196
" />
<path d="M46.0179 37.6196
L45.8940 37.5577
" />
<path d="M45.8940 37.5577
L45.8321 37.4339
" />
<path d="M45.8321 37.4339
L45.8321 36.9387
" />
<path d="M45.8321 36.9387
L45.8940 36.8149
" />
<path d="M45.8940 36.8149
L46.0179 36.7530
" />
<path d="M46.0179 36.7530
L46.2655 36.7530
" />
<path d="M46.2655 36.7530
L46.3893 36.8149
" />
<path d="M46.3893 36.8149
L46.4512 36.9387
" />
<path d="M46.4512 36.9387
L46.4512 37.0625
" />
<path d="M46.4512 37.0625
L45.8321 37.1863
" />
<path d="M46.8845 36.7530
L47.1940 37.6196
" />
<path d="M47.1940 37.6196
L47.5036 36.7530
" />
<path d="M48.9274 37.2482
L49.5464 37.2482
" />
<path d="M48.8036 37.6196
L49.2369 36.3196
" />
<path d="M49.2369 36.3196
L49.6702 37.6196
" />
</g></g>
<g style="fill:none; 
stroke:#F2EDA1; stroke-width:0.1500; stroke-opacity:1; 
stroke-linecap:round; stroke-linejoin:round;">
<text x="46.8350" y="23.5250"
textLength="1.9643" font-size="1.3333" lengthAdjust="spacingAndGlyphs"
text-anchor="middle" opacity="0" stroke-opacity="0">J2</text>
<g class="stroked-text"><desc>J2</desc>
<path d="M46.5017 22.4798
L46.5017 23.1941
" />
<path d="M46.5017 23.1941
L46.4540 23.3370
" />
<path d="M46.4540 23.3370
L46.3588 23.4322
" />
<path d="M46.3588 23.4322
L46.2160 23.4798
" />
<path d="M46.2160 23.4798
L46.1207 23.4798
" />
<path d="M46.9302 22.5751
L46.9779 22.5274
" />
<path d="M46.9779 22.5274
L47.0731 22.4798
" />
<path d="M47.0731 22.4798
L47.3112 22.4798
" />
<path d="M47.3112 22.4798
L47.4064 22.5274
" />
<path d="M47.4064 22.5274
L47.4540 22.5751
" />
<path d="M47.4540 22.5751
L47.5017 22.6703
" />
<path d="M47.5017 22.6703
L47.5017 22.7655
" />
<path d="M47.5017 22.7655
L47.4540 22.9084
" />
<path d="M47.4540 22.9084
L46.8826 23.4798
" />
<path d="M46.8826 23.4798
L47.5017 23.4798
" />
</g><text x="17.0250" y="25.5250"
textLength="3.2976" font-size="1.3333" lengthAdjust="spacingAndGlyphs"
text-anchor="middle" opacity="0" stroke-opacity="0">SW1</text>
<g class="stroked-text"><desc>SW1</desc>
<path d="M15.6917 25.4322
L15.8345 25.4798
" />
<path d="M15.8345 25.4798
L16.0726 25.4798
" />
<path d="M16.0726 25.4798
L16.1679 25.4322
" />
<path d="M16.1679 25.4322
L16.2155 25.3846
" />
<path d="M16.2155 25.3846
L16.2631 25.2893
" />
<path d="M16.2631 25.2893
L16.2631 25.1941
" />
<path d="M16.2631 25.1941
L16.2155 25.0989
" />
<path d="M16.2155 25.0989
L16.1679 25.0512
" />
<path d="M16.1679 25.0512
L16.0726 25.0036
" />
<path d="M16.0726 25.0036
L15.8821 24.9560
" />
<path d="M15.8821 24.9560
L15.7869 24.9084
" />
<path d="M15.7869 24.9084
L15.7393 24.8608
" />
<path d="M15.7393 24.8608
L15.6917 24.7655
" />
<path d="M15.6917 24.7655
L15.6917 24.6703
" />
<path d="M15.6917 24.6703
L15.7393 24.5751
" />
<path d="M15.7393 24.5751
L15.7869 24.5274
" />
<path d="M15.7869 24.5274
L15.8821 24.4798
" />
<path d="M15.8821 24.4798
L16.1202 24.4798
" />
<path d="M16.1202 24.4798
L16.2631 24.5274
" />
<path d="M16.5964 24.4798
L16.8345 25.4798
" />
<path d="M16.8345 25.4798
L17.0250 24.7655
" />
<path d="M17.0250 24.7655
L17.2155 25.4798
" />
<path d="M17.2155 25.4798
L17.4536 24.4798
" />
<path d="M18.3583 25.4798
L17.7869 25.4798
" />
<path d="M18.0726 25.4798
L18.0726 24.4798
" />
<path d="M18.0726 24.4798
L17.9774 24.6227
" />
<path d="M17.9774 24.6227
L17.8821 24.7179
" />
<path d="M17.8821 24.7179
L17.7869 24.7655
" />
</g><text x="46.8350" y="10.5250"
textLength="1.9643" font-size="1.3333" lengthAdjust="spacingAndGlyphs"
text-anchor="middle" opacity="0" stroke-opacity="0">J1</text>
<g class="stroked-text"><desc>J1</desc>
<path d="M46.5017 9.4798
L46.5017 10.1941
" />
<path d="M46.5017 10.1941
L46.4540 10.3370
" />
<path d="M46.4540 10.3370
L46.3588 10.4322
" />
<path d="M46.3588 10.4322
L46.2160 10.4798
" />
<path d="M46.2160 10.4798
L46.1207 10.4798
" />
<path d="M47.5017 10.4798
L46.9302 10.4798
" />
<path d="M47.2160 10.4798
L47.2160 9.4798
" />
<path d="M47.2160 9.4798
L47.1207 9.6227
" />
<path d="M47.1207 9.6227
L47.0255 9.7179
" />
<path d="M47.0255 9.7179
L46.9302 9.7655
" />
</g><text x="17.0250" y="23.5250"
textLength="2.2500" font-size="1.3333" lengthAdjust="spacingAndGlyphs"
text-anchor="middle" opacity="0" stroke-opacity="0">U1</text>
<g class="stroked-text"><desc>U1</desc>
<path d="M16.2631 22.4798
L16.2631 23.2893
" />
<path d="M16.2631 23.2893
L16.3107 23.3846
" />
<path d="M16.3107 23.3846
L16.3583 23.4322
" />
<path d="M16.3583 23.4322
L16.4536 23.4798
" />
<path d="M16.4536 23.4798
L16.6440 23.4798
" />
<path d="M16.6440 23.4798
L16.7393 23.4322
" />
<path d="M16.7393 23.4322
L16.7869 23.3846
" />
<path d="M16.7869 23.3846
L16.8345 23.2893
" />
<path d="M16.8345 23.2893
L16.8345 22.4798
" />
<path d="M17.8345 23.4798
L17.2631 23.4798
" />
<path d="M17.5488 23.4798
L17.5488 22.4798
" />
<path d="M17.5488 22.4798
L17.4536 22.6227
" />
<path d="M17.4536 22.6227
L17.3583 22.7179
" />
<path d="M17.3583 22.7179
L17.2631 22.7655
" />
</g><text x="33.8350" y="24.5250"
textLength="2.2024" font-size="1.3333" lengthAdjust="spacingAndGlyphs"
text-anchor="middle" opacity="0" stroke-opacity="0">R1</text>
<g class="stroked-text"><desc>R1</desc>
<path d="M33.6683 24.4798
L33.3350 24.0036
" />
<path d="M33.0969 24.4798
L33.0969 23.4798
" />
<path d="M33.0969 23.4798
L33.4779 23.4798
" />
<path d="M33.4779 23.4798
L33.5731 23.5274
" />
<path d="M33.5731 23.5274
L33.6207 23.5751
" />
<path d="M33.6207 23.5751
L33.6683 23.6703
" />
<path d="M33.6683 23.6703
L33.6683 23.8132
" />
<path d="M33.6683 23.8132
L33.6207 23.9084
" />
<path d="M33.6207 23.9084
L33.5731 23.9560
" />
<path d="M33.5731 23.9560
L33.4779 24.0036
" />
<path d="M33.4779 24.0036
L33.0969 24.0036
" />
<path d="M34.6207 24.4798
L34.0493 24.4798
" />
<path d="M34.3350 24.4798
L34.3350 23.4798
" />
<path d="M34.3350 23.4798
L34.2398 23.6227
" />
<path d="M34.2398 23.6227
L34.1445 23.7179
" />
<path d="M34.1445 23.7179
L34.0493 23.7655
" />
</g><text x="33.8350" y="30.5250"
textLength="2.2024" font-size="1.3333" lengthAdjust="spacingAndGlyphs"
text-anchor="middle" opacity="0" stroke-opacity="0">R2</text>
<g class="stroked-text"><desc>R2</desc>
<path d="M33.6683 30.4798
L33.3350 30.0036
" />
<path d="M33.0969 30.4798
L33.0969 29.4798
" />
<path d="M33.0969 29.4798
L33.4779 29.4798
" />
<path d="M33.4779 29.4798
L33.5731 29.5274
" />
<path d="M33.5731 29.5274
L33.6207 29.5751
" />
<path d="M33.6207 29.5751
L33.6683 29.6703
" />
<path d="M33.6683 29.6703
L33.6683 29.8132
" />
<path d="M33.6683 29.8132
L33.6207 29.9084
" />
<path d="M33.6207 29.9084
L33.5731 29.9560
" />
<path d="M33.5731 29.9560
L33.4779 30.0036
" />
<path d="M33.4779 30.0036
L33.0969 30.0036
" />
<path d="M34.0493 29.5751
L34.0969 29.5274
" />
<path d="M34.0969 29.5274
L34.1921 29.4798
" />
<path d="M34.1921 29.4798
L34.4302 29.4798
" />
<path d="M34.4302 29.4798
L34.5255 29.5274
" />
<path d="M34.5255 29.5274
L34.5731 29.5751
" />
<path d="M34.5731 29.5751
L34.6207 29.6703
" />
<path d="M34.6207 29.6703
L34.6207 29.7655
" />
<path d="M34.6207 29.7655
L34.5731 29.9084
" />
<path d="M34.5731 29.9084
L34.0017 30.4798
" />
<path d="M34.0017 30.4798
L34.6207 30.4798
" />
</g><path style="fill:none; 
stroke:#F2EDA1; stroke-width:0.1200; stroke-opacity:1; 
stroke-linecap:round; stroke-linejoin:round;fill:none"
d="M 41.7550,18.7550
51.9150,18.7550
51.9150,21.2950
41.7550,21.2950
Z" /> 
</g>
<g style="fill:none; 
stroke:#F2EDA1; stroke-width:0.1200; stroke-opacity:1; 
stroke-linecap:round; stroke-linejoin:round;">
<path d="M14.0250 29.0250
L14.0250 31.0250
" />
<path d="M15.0250 26.8250
L19.0250 26.8250
" />
<path d="M15.0250 33.2250
L19.0250 33.2250
" />
<path d="M20.0250 29.0250
L20.0250 31.0250
" />
<path style="fill:none; 
stroke:#F2EDA1; stroke-width:0.1200; stroke-opacity:1; 
stroke-linecap:round; stroke-linejoin:round;fill:none"
d="M 41.7550,5.7550
51.9150,5.7550
51.9150,8.2950
41.7550,8.2950
Z" /> 
<path style="fill:none; 
stroke:#F2EDA1; stroke-width:0.1200; stroke-opacity:1; 
stroke-linecap:round; stroke-linejoin:round;fill:none"
d="M 8.1250,0.5250
25.9250,0.5250
25.9250,21.5250
8.1250,21.5250
Z" /> 
<path style="fill:none; 
stroke:#F2EDA1; stroke-width:0.1200; stroke-opacity:1; 
stroke-linecap:round; stroke-linejoin:round;fill:none"
d="M 31.3250,25.9250
36.3450,25.9250
36.3450,28.1250
31.3250,28.1250
Z" /> 
<path style="fill:none; 
stroke:#F2EDA1; stroke-width:0.1200; stroke-opacity:1; 
stroke-linecap:round; stroke-linejoin:round;fill:none"
d="M 31.3250,31.9250
36.3450,31.9250
36.3450,34.1250
31.3250,34.1250
Z" /> 
</g>
<g style="fill:none; 
stroke:#D0D2CD; stroke-width:0.0500; stroke-opacity:1; 
stroke-linecap:round; stroke-linejoin:round;">
<path d="M0.0250 0.0250
L60.0250 0.0250
" />
<path d="M0.0250 40.0250
L0.0250 0.0250
" />
<path d="M60.0250 0.0250
L60.0250 40.0250
" />
<path d="M60.0250 40.0250
L0.0250 40.0250
" />
</g>
<g style="fill:#FFFFFF; fill-opacity:1.0000; stroke:none;">
<circle cx="43.0250" cy="20.0250" r="0.5000" /> 
</g>
<g style="fill:#FFFFFF; fill-opacity:1.0000; stroke:none;">
<circle cx="45.5650" cy="20.0250" r="0.5000" /> 
</g>
<g style="fill:#FFFFFF; fill-opacity:1.0000; stroke:none;">
<circle cx="48.1050" cy="20.0250" r="0.5000" /> 
</g>
<g style="fill:#FFFFFF; fill-opacity:1.0000; stroke:none;">
<circle cx="50.6450" cy="20.0250" r="0.5000" /> 
</g>
<g style="fill:#FFFFFF; fill-opacity:1.0000; stroke:none;">
<circle cx="13.7750" cy="27.7750" r="0.5500" /> 
</g>
<g style="fill:#FFFFFF; fill-opacity:1.0000; stroke:none;">
<circle cx="20.2750" cy="27.7750" r="0.5500" /> 
</g>
<g style="fill:#FFFFFF; fill-opacity:1.0000; stroke:none;">
<circle cx="13.7750" cy="32.2750" r="0.5500" /> 
</g>
<g style="fill:#FFFFFF; fill-opacity:1.0000; stroke:none;">
<circle cx="20.2750" cy="32.2750" r="0.5500" /> 
</g>
<g style="fill:#FFFFFF; fill-opacity:1.0000; stroke:none;">
<circle cx="43.0250" cy="7.0250" r="0.5000" /> 
</g>
<g style="fill:#FFFFFF; fill-opacity:1.0000; stroke:none;">
<circle cx="45.5650" cy="7.0250" r="0.5000" /> 
</g>
<g style="fill:#FFFFFF; fill-opacity:1.0000; stroke:none;">
<circle cx="48.1050" cy="7.0250" r="0.5000" /> 
</g>
<g style="fill:#FFFFFF; fill-opacity:1.0000; stroke:none;">
<circle cx="50.6450" cy="7.0250" r="0.5000" /> 
</g>
<g style="fill:#FFFFFF; fill-opacity:1.0000; stroke:none;">
<circle cx="9.4050" cy="3.4050" r="0.5000" /> 
</g>
<g style="fill:#FFFFFF; fill-opacity:1.0000; stroke:none;">
<circle cx="9.4050" cy="5.9450" r="0.5000" /> 
</g>
<g style="fill:#FFFFFF; fill-opacity:1.0000; stroke:none;">
<circle cx="9.4050" cy="8.4850" r="0.5000" /> 
</g>
<g style="fill:#FFFFFF; fill-opacity:1.0000; stroke:none;">
<circle cx="9.4050" cy="11.0250" r="0.5000" /> 
</g>
<g style="fill:#FFFFFF; fill-opacity:1.0000; stroke:none;">
<circle cx="9.4050" cy="13.5650" r="0.5000" /> 
</g>
<g style="fill:#FFFFFF; fill-opacity:1.0000; stroke:none;">
<circle cx="9.4050" cy="16.1050" r="0.5000" /> 
</g>
<g style="fill:#FFFFFF; fill-opacity:1.0000; stroke:none;">
<circle cx="9.4050" cy="18.6450" r="0.5000" /> 
</g>
<g style="fill:#FFFFFF; fill-opacity:1.0000; stroke:none;">
<circle cx="24.6450" cy="18.6450" r="0.5000" /> 
</g>
<g style="fill:#FFFFFF; fill-opacity:1.0000; stroke:none;">
<circle cx="24.6450" cy="16.1050" r="0.5000" /> 
</g>
<g style="fill:#FFFFFF; fill-opacity:1.0000; stroke:none;">
<circle cx="24.6450" cy="13.5650" r="0.5000" /> 
</g>
<g style="fill:#FFFFFF; fill-opacity:1.0000; stroke:none;">
<circle cx="24.6450" cy="11.0250" r="0.5000" /> 
</g>
<g style="fill:#FFFFFF; fill-opacity:1.0000; stroke:none;">
<circle cx="24.6450" cy="8.4850" r="0.5000" /> 
</g>
<g style="fill:#FFFFFF; fill-opacity:1.0000; stroke:none;">
<circle cx="24.6450" cy="5.9450" r="0.5000" /> 
</g>
<g style="fill:#FFFFFF; fill-opacity:1.0000; stroke:none;">
<circle cx="24.6450" cy="3.4050" r="0.5000" /> 
</g>
<g style="fill:#FFFFFF; fill-opacity:1.0000; stroke:none;">
<circle cx="30.0250" cy="27.0250" r="0.4500" /> 
</g>
<g style="fill:#FFFFFF; fill-opacity:1.0000; stroke:none;">
<circle cx="37.6450" cy="27.0250" r="0.4500" /> 
</g>
<g style="fill:#FFFFFF; fill-opacity:1.0000; stroke:none;">
<circle cx="4.0250" cy="4.0250" r="1.6000" /> 
</g>
<g style="fill:#FFFFFF; fill-opacity:1.0000; stroke:none;">
<circle cx="30.0250" cy="33.0250" r="0.4500" /> 
</g>
<g style="fill:#FFFFFF; fill-opacity:1.0000; stroke:none;">
<circle cx="37.6450" cy="33.0250" r="0.4500" /> 
</g>
<g style="fill:#FFFFFF; fill-opacity:1.0000; stroke:none;">
<circle cx="4.0250" cy="36.0250" r="1.6000" /> 
</g>
<g style="fill:#FFFFFF; fill-opacity:1.0000; stroke:none;">
<circle cx="56.0250" cy="4.0250" r="1.6000" /> 
</g>
<g style="fill:#FFFFFF; fill-opacity:1.0000; stroke:none;">
<circle cx="56.0250" cy="36.0250" r="1.6000" /> 
</g> 
</svg>
