%TF.GenerationSoftware,KiCad,Pcbnew,9.0.9-9.0.9~ubuntu24.04.1*%
%TF.CreationDate,2026-10-02T19:53:36-07:00*%
%TF.ProjectId,drivedot,64726976-6564-46f7-942e-6b696361645f,rev?*%
%TF.SameCoordinates,Original*%
%TF.FileFunction,Legend,Top*%
%TF.FilePolarity,Positive*%
%FSLAX46Y46*%
G04 Gerber Fmt 4.6, Leading zero omitted, Abs format (unit mm)*
G04 Created by KiCad (PCBNEW 9.0.9-9.0.9~ubuntu24.04.1) date 2026-10-02 19:53:36*
%MOMM*%
%LPD*%
G01*
G04 APERTURE LIST*
%ADD10C,0.130000*%
%ADD11C,0.150000*%
%ADD12C,0.120000*%
G04 APERTURE END LIST*
D10*
X15990476Y-1263335D02*
X15990476Y-1910954D01*
X15990476Y-1910954D02*
X16028571Y-1987144D01*
X16028571Y-1987144D02*
X16066666Y-2025240D01*
X16066666Y-2025240D02*
X16142857Y-2063335D01*
X16142857Y-2063335D02*
X16295238Y-2063335D01*
X16295238Y-2063335D02*
X16371428Y-2025240D01*
X16371428Y-2025240D02*
X16409523Y-1987144D01*
X16409523Y-1987144D02*
X16447619Y-1910954D01*
X16447619Y-1910954D02*
X16447619Y-1263335D01*
X16790475Y-2025240D02*
X16904761Y-2063335D01*
X16904761Y-2063335D02*
X17095237Y-2063335D01*
X17095237Y-2063335D02*
X17171428Y-2025240D01*
X17171428Y-2025240D02*
X17209523Y-1987144D01*
X17209523Y-1987144D02*
X17247618Y-1910954D01*
X17247618Y-1910954D02*
X17247618Y-1834763D01*
X17247618Y-1834763D02*
X17209523Y-1758573D01*
X17209523Y-1758573D02*
X17171428Y-1720478D01*
X17171428Y-1720478D02*
X17095237Y-1682382D01*
X17095237Y-1682382D02*
X16942856Y-1644287D01*
X16942856Y-1644287D02*
X16866666Y-1606192D01*
X16866666Y-1606192D02*
X16828571Y-1568097D01*
X16828571Y-1568097D02*
X16790475Y-1491906D01*
X16790475Y-1491906D02*
X16790475Y-1415716D01*
X16790475Y-1415716D02*
X16828571Y-1339525D01*
X16828571Y-1339525D02*
X16866666Y-1301430D01*
X16866666Y-1301430D02*
X16942856Y-1263335D01*
X16942856Y-1263335D02*
X17133333Y-1263335D01*
X17133333Y-1263335D02*
X17247618Y-1301430D01*
X17857142Y-1644287D02*
X17971428Y-1682382D01*
X17971428Y-1682382D02*
X18009523Y-1720478D01*
X18009523Y-1720478D02*
X18047619Y-1796668D01*
X18047619Y-1796668D02*
X18047619Y-1910954D01*
X18047619Y-1910954D02*
X18009523Y-1987144D01*
X18009523Y-1987144D02*
X17971428Y-2025240D01*
X17971428Y-2025240D02*
X17895238Y-2063335D01*
X17895238Y-2063335D02*
X17590476Y-2063335D01*
X17590476Y-2063335D02*
X17590476Y-1263335D01*
X17590476Y-1263335D02*
X17857142Y-1263335D01*
X17857142Y-1263335D02*
X17933333Y-1301430D01*
X17933333Y-1301430D02*
X17971428Y-1339525D01*
X17971428Y-1339525D02*
X18009523Y-1415716D01*
X18009523Y-1415716D02*
X18009523Y-1491906D01*
X18009523Y-1491906D02*
X17971428Y-1568097D01*
X17971428Y-1568097D02*
X17933333Y-1606192D01*
X17933333Y-1606192D02*
X17857142Y-1644287D01*
X17857142Y-1644287D02*
X17590476Y-1644287D01*
X12885713Y-36325240D02*
X12999999Y-36363335D01*
X12999999Y-36363335D02*
X13190475Y-36363335D01*
X13190475Y-36363335D02*
X13266666Y-36325240D01*
X13266666Y-36325240D02*
X13304761Y-36287144D01*
X13304761Y-36287144D02*
X13342856Y-36210954D01*
X13342856Y-36210954D02*
X13342856Y-36134763D01*
X13342856Y-36134763D02*
X13304761Y-36058573D01*
X13304761Y-36058573D02*
X13266666Y-36020478D01*
X13266666Y-36020478D02*
X13190475Y-35982382D01*
X13190475Y-35982382D02*
X13038094Y-35944287D01*
X13038094Y-35944287D02*
X12961904Y-35906192D01*
X12961904Y-35906192D02*
X12923809Y-35868097D01*
X12923809Y-35868097D02*
X12885713Y-35791906D01*
X12885713Y-35791906D02*
X12885713Y-35715716D01*
X12885713Y-35715716D02*
X12923809Y-35639525D01*
X12923809Y-35639525D02*
X12961904Y-35601430D01*
X12961904Y-35601430D02*
X13038094Y-35563335D01*
X13038094Y-35563335D02*
X13228571Y-35563335D01*
X13228571Y-35563335D02*
X13342856Y-35601430D01*
X13571428Y-35563335D02*
X14028571Y-35563335D01*
X13799999Y-36363335D02*
X13799999Y-35563335D01*
X14257142Y-36134763D02*
X14638095Y-36134763D01*
X14180952Y-36363335D02*
X14447619Y-35563335D01*
X14447619Y-35563335D02*
X14714285Y-36363335D01*
X15438095Y-36363335D02*
X15171428Y-35982382D01*
X14980952Y-36363335D02*
X14980952Y-35563335D01*
X14980952Y-35563335D02*
X15285714Y-35563335D01*
X15285714Y-35563335D02*
X15361904Y-35601430D01*
X15361904Y-35601430D02*
X15399999Y-35639525D01*
X15399999Y-35639525D02*
X15438095Y-35715716D01*
X15438095Y-35715716D02*
X15438095Y-35830001D01*
X15438095Y-35830001D02*
X15399999Y-35906192D01*
X15399999Y-35906192D02*
X15361904Y-35944287D01*
X15361904Y-35944287D02*
X15285714Y-35982382D01*
X15285714Y-35982382D02*
X14980952Y-35982382D01*
X15666666Y-35563335D02*
X16123809Y-35563335D01*
X15895237Y-36363335D02*
X15895237Y-35563335D01*
X17571428Y-35525240D02*
X16885714Y-36553811D01*
X18409523Y-36325240D02*
X18523809Y-36363335D01*
X18523809Y-36363335D02*
X18714285Y-36363335D01*
X18714285Y-36363335D02*
X18790476Y-36325240D01*
X18790476Y-36325240D02*
X18828571Y-36287144D01*
X18828571Y-36287144D02*
X18866666Y-36210954D01*
X18866666Y-36210954D02*
X18866666Y-36134763D01*
X18866666Y-36134763D02*
X18828571Y-36058573D01*
X18828571Y-36058573D02*
X18790476Y-36020478D01*
X18790476Y-36020478D02*
X18714285Y-35982382D01*
X18714285Y-35982382D02*
X18561904Y-35944287D01*
X18561904Y-35944287D02*
X18485714Y-35906192D01*
X18485714Y-35906192D02*
X18447619Y-35868097D01*
X18447619Y-35868097D02*
X18409523Y-35791906D01*
X18409523Y-35791906D02*
X18409523Y-35715716D01*
X18409523Y-35715716D02*
X18447619Y-35639525D01*
X18447619Y-35639525D02*
X18485714Y-35601430D01*
X18485714Y-35601430D02*
X18561904Y-35563335D01*
X18561904Y-35563335D02*
X18752381Y-35563335D01*
X18752381Y-35563335D02*
X18866666Y-35601430D01*
X19095238Y-35563335D02*
X19552381Y-35563335D01*
X19323809Y-36363335D02*
X19323809Y-35563335D01*
X19971429Y-35563335D02*
X20123810Y-35563335D01*
X20123810Y-35563335D02*
X20200000Y-35601430D01*
X20200000Y-35601430D02*
X20276191Y-35677620D01*
X20276191Y-35677620D02*
X20314286Y-35830001D01*
X20314286Y-35830001D02*
X20314286Y-36096668D01*
X20314286Y-36096668D02*
X20276191Y-36249049D01*
X20276191Y-36249049D02*
X20200000Y-36325240D01*
X20200000Y-36325240D02*
X20123810Y-36363335D01*
X20123810Y-36363335D02*
X19971429Y-36363335D01*
X19971429Y-36363335D02*
X19895238Y-36325240D01*
X19895238Y-36325240D02*
X19819048Y-36249049D01*
X19819048Y-36249049D02*
X19780952Y-36096668D01*
X19780952Y-36096668D02*
X19780952Y-35830001D01*
X19780952Y-35830001D02*
X19819048Y-35677620D01*
X19819048Y-35677620D02*
X19895238Y-35601430D01*
X19895238Y-35601430D02*
X19971429Y-35563335D01*
X20657143Y-36363335D02*
X20657143Y-35563335D01*
X20657143Y-35563335D02*
X20961905Y-35563335D01*
X20961905Y-35563335D02*
X21038095Y-35601430D01*
X21038095Y-35601430D02*
X21076190Y-35639525D01*
X21076190Y-35639525D02*
X21114286Y-35715716D01*
X21114286Y-35715716D02*
X21114286Y-35830001D01*
X21114286Y-35830001D02*
X21076190Y-35906192D01*
X21076190Y-35906192D02*
X21038095Y-35944287D01*
X21038095Y-35944287D02*
X20961905Y-35982382D01*
X20961905Y-35982382D02*
X20657143Y-35982382D01*
X39971429Y-30363335D02*
X39971429Y-29563335D01*
X39971429Y-29563335D02*
X40161905Y-29563335D01*
X40161905Y-29563335D02*
X40276191Y-29601430D01*
X40276191Y-29601430D02*
X40352381Y-29677620D01*
X40352381Y-29677620D02*
X40390476Y-29753811D01*
X40390476Y-29753811D02*
X40428572Y-29906192D01*
X40428572Y-29906192D02*
X40428572Y-30020478D01*
X40428572Y-30020478D02*
X40390476Y-30172859D01*
X40390476Y-30172859D02*
X40352381Y-30249049D01*
X40352381Y-30249049D02*
X40276191Y-30325240D01*
X40276191Y-30325240D02*
X40161905Y-30363335D01*
X40161905Y-30363335D02*
X39971429Y-30363335D01*
X40771429Y-30363335D02*
X40771429Y-29563335D01*
X40771429Y-29563335D02*
X41228572Y-30363335D01*
X41228572Y-30363335D02*
X41228572Y-29563335D01*
X41609524Y-30363335D02*
X41609524Y-29563335D01*
X41609524Y-29563335D02*
X41914286Y-29563335D01*
X41914286Y-29563335D02*
X41990476Y-29601430D01*
X41990476Y-29601430D02*
X42028571Y-29639525D01*
X42028571Y-29639525D02*
X42066667Y-29715716D01*
X42066667Y-29715716D02*
X42066667Y-29830001D01*
X42066667Y-29830001D02*
X42028571Y-29906192D01*
X42028571Y-29906192D02*
X41990476Y-29944287D01*
X41990476Y-29944287D02*
X41914286Y-29982382D01*
X41914286Y-29982382D02*
X41609524Y-29982382D01*
X42390476Y-3601430D02*
X42314286Y-3563335D01*
X42314286Y-3563335D02*
X42200000Y-3563335D01*
X42200000Y-3563335D02*
X42085714Y-3601430D01*
X42085714Y-3601430D02*
X42009524Y-3677620D01*
X42009524Y-3677620D02*
X41971429Y-3753811D01*
X41971429Y-3753811D02*
X41933333Y-3906192D01*
X41933333Y-3906192D02*
X41933333Y-4020478D01*
X41933333Y-4020478D02*
X41971429Y-4172859D01*
X41971429Y-4172859D02*
X42009524Y-4249049D01*
X42009524Y-4249049D02*
X42085714Y-4325240D01*
X42085714Y-4325240D02*
X42200000Y-4363335D01*
X42200000Y-4363335D02*
X42276191Y-4363335D01*
X42276191Y-4363335D02*
X42390476Y-4325240D01*
X42390476Y-4325240D02*
X42428572Y-4287144D01*
X42428572Y-4287144D02*
X42428572Y-4020478D01*
X42428572Y-4020478D02*
X42276191Y-4020478D01*
X42771429Y-4363335D02*
X42771429Y-3563335D01*
X42771429Y-3563335D02*
X43228572Y-4363335D01*
X43228572Y-4363335D02*
X43228572Y-3563335D01*
X43609524Y-4363335D02*
X43609524Y-3563335D01*
X43609524Y-3563335D02*
X43800000Y-3563335D01*
X43800000Y-3563335D02*
X43914286Y-3601430D01*
X43914286Y-3601430D02*
X43990476Y-3677620D01*
X43990476Y-3677620D02*
X44028571Y-3753811D01*
X44028571Y-3753811D02*
X44066667Y-3906192D01*
X44066667Y-3906192D02*
X44066667Y-4020478D01*
X44066667Y-4020478D02*
X44028571Y-4172859D01*
X44028571Y-4172859D02*
X43990476Y-4249049D01*
X43990476Y-4249049D02*
X43914286Y-4325240D01*
X43914286Y-4325240D02*
X43800000Y-4363335D01*
X43800000Y-4363335D02*
X43609524Y-4363335D01*
X42009523Y-16563335D02*
X42504761Y-16563335D01*
X42504761Y-16563335D02*
X42238095Y-16868097D01*
X42238095Y-16868097D02*
X42352380Y-16868097D01*
X42352380Y-16868097D02*
X42428571Y-16906192D01*
X42428571Y-16906192D02*
X42466666Y-16944287D01*
X42466666Y-16944287D02*
X42504761Y-17020478D01*
X42504761Y-17020478D02*
X42504761Y-17210954D01*
X42504761Y-17210954D02*
X42466666Y-17287144D01*
X42466666Y-17287144D02*
X42428571Y-17325240D01*
X42428571Y-17325240D02*
X42352380Y-17363335D01*
X42352380Y-17363335D02*
X42123809Y-17363335D01*
X42123809Y-17363335D02*
X42047618Y-17325240D01*
X42047618Y-17325240D02*
X42009523Y-17287144D01*
X42733333Y-16563335D02*
X43000000Y-17363335D01*
X43000000Y-17363335D02*
X43266666Y-16563335D01*
X43457142Y-16563335D02*
X43952380Y-16563335D01*
X43952380Y-16563335D02*
X43685714Y-16868097D01*
X43685714Y-16868097D02*
X43799999Y-16868097D01*
X43799999Y-16868097D02*
X43876190Y-16906192D01*
X43876190Y-16906192D02*
X43914285Y-16944287D01*
X43914285Y-16944287D02*
X43952380Y-17020478D01*
X43952380Y-17020478D02*
X43952380Y-17210954D01*
X43952380Y-17210954D02*
X43914285Y-17287144D01*
X43914285Y-17287144D02*
X43876190Y-17325240D01*
X43876190Y-17325240D02*
X43799999Y-17363335D01*
X43799999Y-17363335D02*
X43571428Y-17363335D01*
X43571428Y-17363335D02*
X43495237Y-17325240D01*
X43495237Y-17325240D02*
X43457142Y-17287144D01*
X44549523Y-3563335D02*
X45044761Y-3563335D01*
X45044761Y-3563335D02*
X44778095Y-3868097D01*
X44778095Y-3868097D02*
X44892380Y-3868097D01*
X44892380Y-3868097D02*
X44968571Y-3906192D01*
X44968571Y-3906192D02*
X45006666Y-3944287D01*
X45006666Y-3944287D02*
X45044761Y-4020478D01*
X45044761Y-4020478D02*
X45044761Y-4210954D01*
X45044761Y-4210954D02*
X45006666Y-4287144D01*
X45006666Y-4287144D02*
X44968571Y-4325240D01*
X44968571Y-4325240D02*
X44892380Y-4363335D01*
X44892380Y-4363335D02*
X44663809Y-4363335D01*
X44663809Y-4363335D02*
X44587618Y-4325240D01*
X44587618Y-4325240D02*
X44549523Y-4287144D01*
X45273333Y-3563335D02*
X45540000Y-4363335D01*
X45540000Y-4363335D02*
X45806666Y-3563335D01*
X45997142Y-3563335D02*
X46492380Y-3563335D01*
X46492380Y-3563335D02*
X46225714Y-3868097D01*
X46225714Y-3868097D02*
X46339999Y-3868097D01*
X46339999Y-3868097D02*
X46416190Y-3906192D01*
X46416190Y-3906192D02*
X46454285Y-3944287D01*
X46454285Y-3944287D02*
X46492380Y-4020478D01*
X46492380Y-4020478D02*
X46492380Y-4210954D01*
X46492380Y-4210954D02*
X46454285Y-4287144D01*
X46454285Y-4287144D02*
X46416190Y-4325240D01*
X46416190Y-4325240D02*
X46339999Y-4363335D01*
X46339999Y-4363335D02*
X46111428Y-4363335D01*
X46111428Y-4363335D02*
X46035237Y-4325240D01*
X46035237Y-4325240D02*
X45997142Y-4287144D01*
X44930476Y-16601430D02*
X44854286Y-16563335D01*
X44854286Y-16563335D02*
X44740000Y-16563335D01*
X44740000Y-16563335D02*
X44625714Y-16601430D01*
X44625714Y-16601430D02*
X44549524Y-16677620D01*
X44549524Y-16677620D02*
X44511429Y-16753811D01*
X44511429Y-16753811D02*
X44473333Y-16906192D01*
X44473333Y-16906192D02*
X44473333Y-17020478D01*
X44473333Y-17020478D02*
X44511429Y-17172859D01*
X44511429Y-17172859D02*
X44549524Y-17249049D01*
X44549524Y-17249049D02*
X44625714Y-17325240D01*
X44625714Y-17325240D02*
X44740000Y-17363335D01*
X44740000Y-17363335D02*
X44816191Y-17363335D01*
X44816191Y-17363335D02*
X44930476Y-17325240D01*
X44930476Y-17325240D02*
X44968572Y-17287144D01*
X44968572Y-17287144D02*
X44968572Y-17020478D01*
X44968572Y-17020478D02*
X44816191Y-17020478D01*
X45311429Y-17363335D02*
X45311429Y-16563335D01*
X45311429Y-16563335D02*
X45768572Y-17363335D01*
X45768572Y-17363335D02*
X45768572Y-16563335D01*
X46149524Y-17363335D02*
X46149524Y-16563335D01*
X46149524Y-16563335D02*
X46340000Y-16563335D01*
X46340000Y-16563335D02*
X46454286Y-16601430D01*
X46454286Y-16601430D02*
X46530476Y-16677620D01*
X46530476Y-16677620D02*
X46568571Y-16753811D01*
X46568571Y-16753811D02*
X46606667Y-16906192D01*
X46606667Y-16906192D02*
X46606667Y-17020478D01*
X46606667Y-17020478D02*
X46568571Y-17172859D01*
X46568571Y-17172859D02*
X46530476Y-17249049D01*
X46530476Y-17249049D02*
X46454286Y-17325240D01*
X46454286Y-17325240D02*
X46340000Y-17363335D01*
X46340000Y-17363335D02*
X46149524Y-17363335D01*
X45638095Y-11063335D02*
X45790476Y-11063335D01*
X45790476Y-11063335D02*
X45866666Y-11101430D01*
X45866666Y-11101430D02*
X45942857Y-11177620D01*
X45942857Y-11177620D02*
X45980952Y-11330001D01*
X45980952Y-11330001D02*
X45980952Y-11596668D01*
X45980952Y-11596668D02*
X45942857Y-11749049D01*
X45942857Y-11749049D02*
X45866666Y-11825240D01*
X45866666Y-11825240D02*
X45790476Y-11863335D01*
X45790476Y-11863335D02*
X45638095Y-11863335D01*
X45638095Y-11863335D02*
X45561904Y-11825240D01*
X45561904Y-11825240D02*
X45485714Y-11749049D01*
X45485714Y-11749049D02*
X45447618Y-11596668D01*
X45447618Y-11596668D02*
X45447618Y-11330001D01*
X45447618Y-11330001D02*
X45485714Y-11177620D01*
X45485714Y-11177620D02*
X45561904Y-11101430D01*
X45561904Y-11101430D02*
X45638095Y-11063335D01*
X46704761Y-11863335D02*
X46323809Y-11863335D01*
X46323809Y-11863335D02*
X46323809Y-11063335D01*
X46971428Y-11444287D02*
X47238094Y-11444287D01*
X47352380Y-11863335D02*
X46971428Y-11863335D01*
X46971428Y-11863335D02*
X46971428Y-11063335D01*
X46971428Y-11063335D02*
X47352380Y-11063335D01*
X47695238Y-11863335D02*
X47695238Y-11063335D01*
X47695238Y-11063335D02*
X47885714Y-11063335D01*
X47885714Y-11063335D02*
X48000000Y-11101430D01*
X48000000Y-11101430D02*
X48076190Y-11177620D01*
X48076190Y-11177620D02*
X48114285Y-11253811D01*
X48114285Y-11253811D02*
X48152381Y-11406192D01*
X48152381Y-11406192D02*
X48152381Y-11520478D01*
X48152381Y-11520478D02*
X48114285Y-11672859D01*
X48114285Y-11672859D02*
X48076190Y-11749049D01*
X48076190Y-11749049D02*
X48000000Y-11825240D01*
X48000000Y-11825240D02*
X47885714Y-11863335D01*
X47885714Y-11863335D02*
X47695238Y-11863335D01*
X45923810Y-24863335D02*
X45923810Y-24063335D01*
X46304762Y-24863335D02*
X46304762Y-24063335D01*
X46304762Y-24063335D02*
X46571428Y-24634763D01*
X46571428Y-24634763D02*
X46838095Y-24063335D01*
X46838095Y-24063335D02*
X46838095Y-24863335D01*
X47219048Y-24063335D02*
X47219048Y-24710954D01*
X47219048Y-24710954D02*
X47257143Y-24787144D01*
X47257143Y-24787144D02*
X47295238Y-24825240D01*
X47295238Y-24825240D02*
X47371429Y-24863335D01*
X47371429Y-24863335D02*
X47523810Y-24863335D01*
X47523810Y-24863335D02*
X47600000Y-24825240D01*
X47600000Y-24825240D02*
X47638095Y-24787144D01*
X47638095Y-24787144D02*
X47676191Y-24710954D01*
X47676191Y-24710954D02*
X47676191Y-24063335D01*
X47127618Y-4325240D02*
X47241904Y-4363335D01*
X47241904Y-4363335D02*
X47432380Y-4363335D01*
X47432380Y-4363335D02*
X47508571Y-4325240D01*
X47508571Y-4325240D02*
X47546666Y-4287144D01*
X47546666Y-4287144D02*
X47584761Y-4210954D01*
X47584761Y-4210954D02*
X47584761Y-4134763D01*
X47584761Y-4134763D02*
X47546666Y-4058573D01*
X47546666Y-4058573D02*
X47508571Y-4020478D01*
X47508571Y-4020478D02*
X47432380Y-3982382D01*
X47432380Y-3982382D02*
X47279999Y-3944287D01*
X47279999Y-3944287D02*
X47203809Y-3906192D01*
X47203809Y-3906192D02*
X47165714Y-3868097D01*
X47165714Y-3868097D02*
X47127618Y-3791906D01*
X47127618Y-3791906D02*
X47127618Y-3715716D01*
X47127618Y-3715716D02*
X47165714Y-3639525D01*
X47165714Y-3639525D02*
X47203809Y-3601430D01*
X47203809Y-3601430D02*
X47279999Y-3563335D01*
X47279999Y-3563335D02*
X47470476Y-3563335D01*
X47470476Y-3563335D02*
X47584761Y-3601430D01*
X48384762Y-4287144D02*
X48346666Y-4325240D01*
X48346666Y-4325240D02*
X48232381Y-4363335D01*
X48232381Y-4363335D02*
X48156190Y-4363335D01*
X48156190Y-4363335D02*
X48041904Y-4325240D01*
X48041904Y-4325240D02*
X47965714Y-4249049D01*
X47965714Y-4249049D02*
X47927619Y-4172859D01*
X47927619Y-4172859D02*
X47889523Y-4020478D01*
X47889523Y-4020478D02*
X47889523Y-3906192D01*
X47889523Y-3906192D02*
X47927619Y-3753811D01*
X47927619Y-3753811D02*
X47965714Y-3677620D01*
X47965714Y-3677620D02*
X48041904Y-3601430D01*
X48041904Y-3601430D02*
X48156190Y-3563335D01*
X48156190Y-3563335D02*
X48232381Y-3563335D01*
X48232381Y-3563335D02*
X48346666Y-3601430D01*
X48346666Y-3601430D02*
X48384762Y-3639525D01*
X49108571Y-4363335D02*
X48727619Y-4363335D01*
X48727619Y-4363335D02*
X48727619Y-3563335D01*
X47127618Y-17325240D02*
X47241904Y-17363335D01*
X47241904Y-17363335D02*
X47432380Y-17363335D01*
X47432380Y-17363335D02*
X47508571Y-17325240D01*
X47508571Y-17325240D02*
X47546666Y-17287144D01*
X47546666Y-17287144D02*
X47584761Y-17210954D01*
X47584761Y-17210954D02*
X47584761Y-17134763D01*
X47584761Y-17134763D02*
X47546666Y-17058573D01*
X47546666Y-17058573D02*
X47508571Y-17020478D01*
X47508571Y-17020478D02*
X47432380Y-16982382D01*
X47432380Y-16982382D02*
X47279999Y-16944287D01*
X47279999Y-16944287D02*
X47203809Y-16906192D01*
X47203809Y-16906192D02*
X47165714Y-16868097D01*
X47165714Y-16868097D02*
X47127618Y-16791906D01*
X47127618Y-16791906D02*
X47127618Y-16715716D01*
X47127618Y-16715716D02*
X47165714Y-16639525D01*
X47165714Y-16639525D02*
X47203809Y-16601430D01*
X47203809Y-16601430D02*
X47279999Y-16563335D01*
X47279999Y-16563335D02*
X47470476Y-16563335D01*
X47470476Y-16563335D02*
X47584761Y-16601430D01*
X48384762Y-17287144D02*
X48346666Y-17325240D01*
X48346666Y-17325240D02*
X48232381Y-17363335D01*
X48232381Y-17363335D02*
X48156190Y-17363335D01*
X48156190Y-17363335D02*
X48041904Y-17325240D01*
X48041904Y-17325240D02*
X47965714Y-17249049D01*
X47965714Y-17249049D02*
X47927619Y-17172859D01*
X47927619Y-17172859D02*
X47889523Y-17020478D01*
X47889523Y-17020478D02*
X47889523Y-16906192D01*
X47889523Y-16906192D02*
X47927619Y-16753811D01*
X47927619Y-16753811D02*
X47965714Y-16677620D01*
X47965714Y-16677620D02*
X48041904Y-16601430D01*
X48041904Y-16601430D02*
X48156190Y-16563335D01*
X48156190Y-16563335D02*
X48232381Y-16563335D01*
X48232381Y-16563335D02*
X48346666Y-16601430D01*
X48346666Y-16601430D02*
X48384762Y-16639525D01*
X49108571Y-17363335D02*
X48727619Y-17363335D01*
X48727619Y-17363335D02*
X48727619Y-16563335D01*
X49648571Y-4325240D02*
X49762857Y-4363335D01*
X49762857Y-4363335D02*
X49953333Y-4363335D01*
X49953333Y-4363335D02*
X50029524Y-4325240D01*
X50029524Y-4325240D02*
X50067619Y-4287144D01*
X50067619Y-4287144D02*
X50105714Y-4210954D01*
X50105714Y-4210954D02*
X50105714Y-4134763D01*
X50105714Y-4134763D02*
X50067619Y-4058573D01*
X50067619Y-4058573D02*
X50029524Y-4020478D01*
X50029524Y-4020478D02*
X49953333Y-3982382D01*
X49953333Y-3982382D02*
X49800952Y-3944287D01*
X49800952Y-3944287D02*
X49724762Y-3906192D01*
X49724762Y-3906192D02*
X49686667Y-3868097D01*
X49686667Y-3868097D02*
X49648571Y-3791906D01*
X49648571Y-3791906D02*
X49648571Y-3715716D01*
X49648571Y-3715716D02*
X49686667Y-3639525D01*
X49686667Y-3639525D02*
X49724762Y-3601430D01*
X49724762Y-3601430D02*
X49800952Y-3563335D01*
X49800952Y-3563335D02*
X49991429Y-3563335D01*
X49991429Y-3563335D02*
X50105714Y-3601430D01*
X50448572Y-4363335D02*
X50448572Y-3563335D01*
X50448572Y-3563335D02*
X50639048Y-3563335D01*
X50639048Y-3563335D02*
X50753334Y-3601430D01*
X50753334Y-3601430D02*
X50829524Y-3677620D01*
X50829524Y-3677620D02*
X50867619Y-3753811D01*
X50867619Y-3753811D02*
X50905715Y-3906192D01*
X50905715Y-3906192D02*
X50905715Y-4020478D01*
X50905715Y-4020478D02*
X50867619Y-4172859D01*
X50867619Y-4172859D02*
X50829524Y-4249049D01*
X50829524Y-4249049D02*
X50753334Y-4325240D01*
X50753334Y-4325240D02*
X50639048Y-4363335D01*
X50639048Y-4363335D02*
X50448572Y-4363335D01*
X51210476Y-4134763D02*
X51591429Y-4134763D01*
X51134286Y-4363335D02*
X51400953Y-3563335D01*
X51400953Y-3563335D02*
X51667619Y-4363335D01*
X49648571Y-17325240D02*
X49762857Y-17363335D01*
X49762857Y-17363335D02*
X49953333Y-17363335D01*
X49953333Y-17363335D02*
X50029524Y-17325240D01*
X50029524Y-17325240D02*
X50067619Y-17287144D01*
X50067619Y-17287144D02*
X50105714Y-17210954D01*
X50105714Y-17210954D02*
X50105714Y-17134763D01*
X50105714Y-17134763D02*
X50067619Y-17058573D01*
X50067619Y-17058573D02*
X50029524Y-17020478D01*
X50029524Y-17020478D02*
X49953333Y-16982382D01*
X49953333Y-16982382D02*
X49800952Y-16944287D01*
X49800952Y-16944287D02*
X49724762Y-16906192D01*
X49724762Y-16906192D02*
X49686667Y-16868097D01*
X49686667Y-16868097D02*
X49648571Y-16791906D01*
X49648571Y-16791906D02*
X49648571Y-16715716D01*
X49648571Y-16715716D02*
X49686667Y-16639525D01*
X49686667Y-16639525D02*
X49724762Y-16601430D01*
X49724762Y-16601430D02*
X49800952Y-16563335D01*
X49800952Y-16563335D02*
X49991429Y-16563335D01*
X49991429Y-16563335D02*
X50105714Y-16601430D01*
X50448572Y-17363335D02*
X50448572Y-16563335D01*
X50448572Y-16563335D02*
X50639048Y-16563335D01*
X50639048Y-16563335D02*
X50753334Y-16601430D01*
X50753334Y-16601430D02*
X50829524Y-16677620D01*
X50829524Y-16677620D02*
X50867619Y-16753811D01*
X50867619Y-16753811D02*
X50905715Y-16906192D01*
X50905715Y-16906192D02*
X50905715Y-17020478D01*
X50905715Y-17020478D02*
X50867619Y-17172859D01*
X50867619Y-17172859D02*
X50829524Y-17249049D01*
X50829524Y-17249049D02*
X50753334Y-17325240D01*
X50753334Y-17325240D02*
X50639048Y-17363335D01*
X50639048Y-17363335D02*
X50448572Y-17363335D01*
X51210476Y-17134763D02*
X51591429Y-17134763D01*
X51134286Y-17363335D02*
X51400953Y-16563335D01*
X51400953Y-16563335D02*
X51667619Y-17363335D01*
X34540476Y-37594644D02*
X34540476Y-36294644D01*
X34540476Y-36294644D02*
X34850000Y-36294644D01*
X34850000Y-36294644D02*
X35035714Y-36356549D01*
X35035714Y-36356549D02*
X35159524Y-36480359D01*
X35159524Y-36480359D02*
X35221429Y-36604168D01*
X35221429Y-36604168D02*
X35283333Y-36851787D01*
X35283333Y-36851787D02*
X35283333Y-37037501D01*
X35283333Y-37037501D02*
X35221429Y-37285120D01*
X35221429Y-37285120D02*
X35159524Y-37408930D01*
X35159524Y-37408930D02*
X35035714Y-37532740D01*
X35035714Y-37532740D02*
X34850000Y-37594644D01*
X34850000Y-37594644D02*
X34540476Y-37594644D01*
X35840476Y-37594644D02*
X35840476Y-36727978D01*
X35840476Y-36975597D02*
X35902381Y-36851787D01*
X35902381Y-36851787D02*
X35964286Y-36789882D01*
X35964286Y-36789882D02*
X36088095Y-36727978D01*
X36088095Y-36727978D02*
X36211905Y-36727978D01*
X36645238Y-37594644D02*
X36645238Y-36727978D01*
X36645238Y-36294644D02*
X36583334Y-36356549D01*
X36583334Y-36356549D02*
X36645238Y-36418454D01*
X36645238Y-36418454D02*
X36707143Y-36356549D01*
X36707143Y-36356549D02*
X36645238Y-36294644D01*
X36645238Y-36294644D02*
X36645238Y-36418454D01*
X37140477Y-36727978D02*
X37450001Y-37594644D01*
X37450001Y-37594644D02*
X37759524Y-36727978D01*
X38750000Y-37532740D02*
X38626191Y-37594644D01*
X38626191Y-37594644D02*
X38378572Y-37594644D01*
X38378572Y-37594644D02*
X38254762Y-37532740D01*
X38254762Y-37532740D02*
X38192858Y-37408930D01*
X38192858Y-37408930D02*
X38192858Y-36913692D01*
X38192858Y-36913692D02*
X38254762Y-36789882D01*
X38254762Y-36789882D02*
X38378572Y-36727978D01*
X38378572Y-36727978D02*
X38626191Y-36727978D01*
X38626191Y-36727978D02*
X38750000Y-36789882D01*
X38750000Y-36789882D02*
X38811905Y-36913692D01*
X38811905Y-36913692D02*
X38811905Y-37037501D01*
X38811905Y-37037501D02*
X38192858Y-37161311D01*
X39369048Y-37594644D02*
X39369048Y-36294644D01*
X39369048Y-36294644D02*
X39678572Y-36294644D01*
X39678572Y-36294644D02*
X39864286Y-36356549D01*
X39864286Y-36356549D02*
X39988096Y-36480359D01*
X39988096Y-36480359D02*
X40050001Y-36604168D01*
X40050001Y-36604168D02*
X40111905Y-36851787D01*
X40111905Y-36851787D02*
X40111905Y-37037501D01*
X40111905Y-37037501D02*
X40050001Y-37285120D01*
X40050001Y-37285120D02*
X39988096Y-37408930D01*
X39988096Y-37408930D02*
X39864286Y-37532740D01*
X39864286Y-37532740D02*
X39678572Y-37594644D01*
X39678572Y-37594644D02*
X39369048Y-37594644D01*
X40854763Y-37594644D02*
X40730953Y-37532740D01*
X40730953Y-37532740D02*
X40669048Y-37470835D01*
X40669048Y-37470835D02*
X40607144Y-37347025D01*
X40607144Y-37347025D02*
X40607144Y-36975597D01*
X40607144Y-36975597D02*
X40669048Y-36851787D01*
X40669048Y-36851787D02*
X40730953Y-36789882D01*
X40730953Y-36789882D02*
X40854763Y-36727978D01*
X40854763Y-36727978D02*
X41040477Y-36727978D01*
X41040477Y-36727978D02*
X41164286Y-36789882D01*
X41164286Y-36789882D02*
X41226191Y-36851787D01*
X41226191Y-36851787D02*
X41288096Y-36975597D01*
X41288096Y-36975597D02*
X41288096Y-37347025D01*
X41288096Y-37347025D02*
X41226191Y-37470835D01*
X41226191Y-37470835D02*
X41164286Y-37532740D01*
X41164286Y-37532740D02*
X41040477Y-37594644D01*
X41040477Y-37594644D02*
X40854763Y-37594644D01*
X41659524Y-36727978D02*
X42154762Y-36727978D01*
X41845238Y-36294644D02*
X41845238Y-37408930D01*
X41845238Y-37408930D02*
X41907143Y-37532740D01*
X41907143Y-37532740D02*
X42030953Y-37594644D01*
X42030953Y-37594644D02*
X42154762Y-37594644D01*
X45311904Y-37594644D02*
X44878571Y-36975597D01*
X44569047Y-37594644D02*
X44569047Y-36294644D01*
X44569047Y-36294644D02*
X45064285Y-36294644D01*
X45064285Y-36294644D02*
X45188095Y-36356549D01*
X45188095Y-36356549D02*
X45250000Y-36418454D01*
X45250000Y-36418454D02*
X45311904Y-36542263D01*
X45311904Y-36542263D02*
X45311904Y-36727978D01*
X45311904Y-36727978D02*
X45250000Y-36851787D01*
X45250000Y-36851787D02*
X45188095Y-36913692D01*
X45188095Y-36913692D02*
X45064285Y-36975597D01*
X45064285Y-36975597D02*
X44569047Y-36975597D01*
X46364285Y-37532740D02*
X46240476Y-37594644D01*
X46240476Y-37594644D02*
X45992857Y-37594644D01*
X45992857Y-37594644D02*
X45869047Y-37532740D01*
X45869047Y-37532740D02*
X45807143Y-37408930D01*
X45807143Y-37408930D02*
X45807143Y-36913692D01*
X45807143Y-36913692D02*
X45869047Y-36789882D01*
X45869047Y-36789882D02*
X45992857Y-36727978D01*
X45992857Y-36727978D02*
X46240476Y-36727978D01*
X46240476Y-36727978D02*
X46364285Y-36789882D01*
X46364285Y-36789882D02*
X46426190Y-36913692D01*
X46426190Y-36913692D02*
X46426190Y-37037501D01*
X46426190Y-37037501D02*
X45807143Y-37161311D01*
X46859524Y-36727978D02*
X47169048Y-37594644D01*
X47169048Y-37594644D02*
X47478571Y-36727978D01*
X48902381Y-37223216D02*
X49521428Y-37223216D01*
X48778571Y-37594644D02*
X49211904Y-36294644D01*
X49211904Y-36294644D02*
X49645238Y-37594644D01*
D11*
X46476666Y-22454819D02*
X46476666Y-23169104D01*
X46476666Y-23169104D02*
X46429047Y-23311961D01*
X46429047Y-23311961D02*
X46333809Y-23407200D01*
X46333809Y-23407200D02*
X46190952Y-23454819D01*
X46190952Y-23454819D02*
X46095714Y-23454819D01*
X46905238Y-22550057D02*
X46952857Y-22502438D01*
X46952857Y-22502438D02*
X47048095Y-22454819D01*
X47048095Y-22454819D02*
X47286190Y-22454819D01*
X47286190Y-22454819D02*
X47381428Y-22502438D01*
X47381428Y-22502438D02*
X47429047Y-22550057D01*
X47429047Y-22550057D02*
X47476666Y-22645295D01*
X47476666Y-22645295D02*
X47476666Y-22740533D01*
X47476666Y-22740533D02*
X47429047Y-22883390D01*
X47429047Y-22883390D02*
X46857619Y-23454819D01*
X46857619Y-23454819D02*
X47476666Y-23454819D01*
X15666667Y-25407200D02*
X15809524Y-25454819D01*
X15809524Y-25454819D02*
X16047619Y-25454819D01*
X16047619Y-25454819D02*
X16142857Y-25407200D01*
X16142857Y-25407200D02*
X16190476Y-25359580D01*
X16190476Y-25359580D02*
X16238095Y-25264342D01*
X16238095Y-25264342D02*
X16238095Y-25169104D01*
X16238095Y-25169104D02*
X16190476Y-25073866D01*
X16190476Y-25073866D02*
X16142857Y-25026247D01*
X16142857Y-25026247D02*
X16047619Y-24978628D01*
X16047619Y-24978628D02*
X15857143Y-24931009D01*
X15857143Y-24931009D02*
X15761905Y-24883390D01*
X15761905Y-24883390D02*
X15714286Y-24835771D01*
X15714286Y-24835771D02*
X15666667Y-24740533D01*
X15666667Y-24740533D02*
X15666667Y-24645295D01*
X15666667Y-24645295D02*
X15714286Y-24550057D01*
X15714286Y-24550057D02*
X15761905Y-24502438D01*
X15761905Y-24502438D02*
X15857143Y-24454819D01*
X15857143Y-24454819D02*
X16095238Y-24454819D01*
X16095238Y-24454819D02*
X16238095Y-24502438D01*
X16571429Y-24454819D02*
X16809524Y-25454819D01*
X16809524Y-25454819D02*
X17000000Y-24740533D01*
X17000000Y-24740533D02*
X17190476Y-25454819D01*
X17190476Y-25454819D02*
X17428572Y-24454819D01*
X18333333Y-25454819D02*
X17761905Y-25454819D01*
X18047619Y-25454819D02*
X18047619Y-24454819D01*
X18047619Y-24454819D02*
X17952381Y-24597676D01*
X17952381Y-24597676D02*
X17857143Y-24692914D01*
X17857143Y-24692914D02*
X17761905Y-24740533D01*
X46476666Y-9454819D02*
X46476666Y-10169104D01*
X46476666Y-10169104D02*
X46429047Y-10311961D01*
X46429047Y-10311961D02*
X46333809Y-10407200D01*
X46333809Y-10407200D02*
X46190952Y-10454819D01*
X46190952Y-10454819D02*
X46095714Y-10454819D01*
X47476666Y-10454819D02*
X46905238Y-10454819D01*
X47190952Y-10454819D02*
X47190952Y-9454819D01*
X47190952Y-9454819D02*
X47095714Y-9597676D01*
X47095714Y-9597676D02*
X47000476Y-9692914D01*
X47000476Y-9692914D02*
X46905238Y-9740533D01*
X16238095Y-22454819D02*
X16238095Y-23264342D01*
X16238095Y-23264342D02*
X16285714Y-23359580D01*
X16285714Y-23359580D02*
X16333333Y-23407200D01*
X16333333Y-23407200D02*
X16428571Y-23454819D01*
X16428571Y-23454819D02*
X16619047Y-23454819D01*
X16619047Y-23454819D02*
X16714285Y-23407200D01*
X16714285Y-23407200D02*
X16761904Y-23359580D01*
X16761904Y-23359580D02*
X16809523Y-23264342D01*
X16809523Y-23264342D02*
X16809523Y-22454819D01*
X17809523Y-23454819D02*
X17238095Y-23454819D01*
X17523809Y-23454819D02*
X17523809Y-22454819D01*
X17523809Y-22454819D02*
X17428571Y-22597676D01*
X17428571Y-22597676D02*
X17333333Y-22692914D01*
X17333333Y-22692914D02*
X17238095Y-22740533D01*
X33643333Y-24454819D02*
X33310000Y-23978628D01*
X33071905Y-24454819D02*
X33071905Y-23454819D01*
X33071905Y-23454819D02*
X33452857Y-23454819D01*
X33452857Y-23454819D02*
X33548095Y-23502438D01*
X33548095Y-23502438D02*
X33595714Y-23550057D01*
X33595714Y-23550057D02*
X33643333Y-23645295D01*
X33643333Y-23645295D02*
X33643333Y-23788152D01*
X33643333Y-23788152D02*
X33595714Y-23883390D01*
X33595714Y-23883390D02*
X33548095Y-23931009D01*
X33548095Y-23931009D02*
X33452857Y-23978628D01*
X33452857Y-23978628D02*
X33071905Y-23978628D01*
X34595714Y-24454819D02*
X34024286Y-24454819D01*
X34310000Y-24454819D02*
X34310000Y-23454819D01*
X34310000Y-23454819D02*
X34214762Y-23597676D01*
X34214762Y-23597676D02*
X34119524Y-23692914D01*
X34119524Y-23692914D02*
X34024286Y-23740533D01*
X33643333Y-30454819D02*
X33310000Y-29978628D01*
X33071905Y-30454819D02*
X33071905Y-29454819D01*
X33071905Y-29454819D02*
X33452857Y-29454819D01*
X33452857Y-29454819D02*
X33548095Y-29502438D01*
X33548095Y-29502438D02*
X33595714Y-29550057D01*
X33595714Y-29550057D02*
X33643333Y-29645295D01*
X33643333Y-29645295D02*
X33643333Y-29788152D01*
X33643333Y-29788152D02*
X33595714Y-29883390D01*
X33595714Y-29883390D02*
X33548095Y-29931009D01*
X33548095Y-29931009D02*
X33452857Y-29978628D01*
X33452857Y-29978628D02*
X33071905Y-29978628D01*
X34024286Y-29550057D02*
X34071905Y-29502438D01*
X34071905Y-29502438D02*
X34167143Y-29454819D01*
X34167143Y-29454819D02*
X34405238Y-29454819D01*
X34405238Y-29454819D02*
X34500476Y-29502438D01*
X34500476Y-29502438D02*
X34548095Y-29550057D01*
X34548095Y-29550057D02*
X34595714Y-29645295D01*
X34595714Y-29645295D02*
X34595714Y-29740533D01*
X34595714Y-29740533D02*
X34548095Y-29883390D01*
X34548095Y-29883390D02*
X33976667Y-30454819D01*
X33976667Y-30454819D02*
X34595714Y-30454819D01*
%TO.C,J2*%
D12*
X41730000Y-18730000D02*
X51890000Y-18730000D01*
X51890000Y-21270000D01*
X41730000Y-21270000D01*
X41730000Y-18730000D01*
%TO.C,SW1*%
X14000000Y-29000000D02*
X14000000Y-31000000D01*
X15000000Y-26800000D02*
X19000000Y-26800000D01*
X15000000Y-33200000D02*
X19000000Y-33200000D01*
X20000000Y-29000000D02*
X20000000Y-31000000D01*
%TO.C,J1*%
X41730000Y-5730000D02*
X51890000Y-5730000D01*
X51890000Y-8270000D01*
X41730000Y-8270000D01*
X41730000Y-5730000D01*
%TO.C,U1*%
X8100000Y-500000D02*
X25900000Y-500000D01*
X25900000Y-21500000D01*
X8100000Y-21500000D01*
X8100000Y-500000D01*
%TO.C,R1*%
X31300000Y-25900000D02*
X36320000Y-25900000D01*
X36320000Y-28100000D01*
X31300000Y-28100000D01*
X31300000Y-25900000D01*
%TO.C,R2*%
X31300000Y-31900000D02*
X36320000Y-31900000D01*
X36320000Y-34100000D01*
X31300000Y-34100000D01*
X31300000Y-31900000D01*
%TD*%
M02*
